<?xml version="1.0" encoding="UTF-8"?>
<svg version="1.1" xmlns="http://www.w3.org/2000/svg" width="2106" height="377">
<path d="M0 0 C22.11 0 44.22 0 67 0 C71.269375 8.78625 71.269375 8.78625 75.625 17.75 C83.17443232 33.25731685 90.82690022 48.70976619 98.5625 64.125 C105.51519246 77.98008337 112.36927496 91.86623338 118.99072266 105.88330078 C121.25210973 110.6259776 123.61412991 115.31886247 126 120 C134.31291312 104.70178888 141.8635149 89.04976144 149.43164062 73.37553406 C152.31365551 67.40992761 155.21318314 61.45302287 158.12109375 55.5 C158.55371521 54.614263 158.98633667 53.728526 159.43206787 52.81594849 C161.12683336 49.34686052 162.82198209 45.87796077 164.51824951 42.40960693 C171.41506925 28.30557663 178.20576525 14.15465572 185 0 C207.11 0 229.22 0 252 0 C252 75.57 252 151.14 252 229 C233.19 229 214.38 229 195 229 C194.67 187.75 194.34 146.5 194 104 C190.04 112.25 186.08 120.5 182 129 C179.87619425 133.31994013 177.74802051 137.63396065 175.58886719 141.93579102 C175.05066849 143.01233444 174.51246979 144.08887787 173.95796204 145.19804382 C172.23950175 148.63428696 170.51824277 152.06911884 168.796875 155.50390625 C167.58050757 157.93420005 166.36475636 160.36480196 165.14898682 162.7953949 C162.31418873 168.46192965 159.47736067 174.12744537 156.63972878 179.79256147 C153.39966418 186.26136449 150.16197548 192.73135569 146.92444754 199.20142853 C140.28553547 212.46890634 133.64376549 225.73495183 127 239 C124.2149215 236.54512213 122.78289479 233.93597755 121.13362122 230.62800598 C120.57416306 229.51321365 120.0147049 228.39842133 119.43829346 227.24984741 C118.82569424 226.01403228 118.2132103 224.77815999 117.60083008 223.54223633 C116.9506651 222.24106001 116.2999713 220.94014781 115.64878845 219.63948059 C113.88330762 216.10937997 112.12525319 212.57562726 110.36849809 209.04117799 C108.53101763 205.34746874 106.68674427 201.65715455 104.84318542 197.96647644 C101.35353929 190.97785832 97.87002256 183.98620364 94.3886916 176.99344033 C89.68376108 167.54378369 84.96938881 158.09884024 80.25553989 148.65363026 C72.82929645 133.77293083 65.41569821 118.88596819 58 104 C57.67 145.25 57.34 186.5 57 229 C38.19 229 19.38 229 0 229 C0 153.43 0 77.86 0 0 Z " fill="#FFFFFF" transform="translate(767,65)"/>
<path d="M0 0 C21.78 0 43.56 0 66 0 C72.59695289 12.53421048 79.12073641 25.0764371 85.4375 37.75 C85.85129913 38.5784845 86.26509827 39.40696899 86.69143677 40.26055908 C91.76733392 50.42502151 96.77605004 60.61438354 101.62402344 70.88989258 C109.45924903 87.3985377 117.79684501 103.67204492 126 120 C126.47526123 119.04875244 126.95052246 118.09750488 127.44018555 117.11743164 C130.70468675 110.58514582 133.97134447 104.05397597 137.24874878 97.52815247 C148.00882967 76.1286325 148.00882967 76.1286325 158.43212891 54.56396484 C167.1025566 36.28815981 176.10547543 18.1663926 185 0 C207.11 0 229.22 0 252 0 C252 75.57 252 151.14 252 229 C233.19 229 214.38 229 195 229 C194.67 187.75 194.34 146.5 194 104 C187.791875 116.395625 181.58375 128.79125 175.1875 141.5625 C173.25156982 145.42525635 171.31563965 149.2880127 169.32104492 153.26782227 C161.52788858 168.8331888 153.77306691 184.405653 146.3190918 200.13696289 C142.60443101 207.9635499 138.70508282 215.69835418 134.8125 223.4375 C134.04342452 224.97060518 133.27454431 226.50380834 132.50585938 228.03710938 C130.67279395 231.69252556 128.83719004 235.34665521 127 239 C124.2149215 236.54512213 122.78289479 233.93597755 121.13362122 230.62800598 C120.57416306 229.51321365 120.0147049 228.39842133 119.43829346 227.24984741 C118.82569424 226.01403228 118.2132103 224.77815999 117.60083008 223.54223633 C116.9506651 222.24106001 116.2999713 220.94014781 115.64878845 219.63948059 C113.88330762 216.10937997 112.12525319 212.57562726 110.36849809 209.04117799 C108.53101763 205.34746874 106.68674427 201.65715455 104.84318542 197.96647644 C101.35353929 190.97785832 97.87002256 183.98620364 94.3886916 176.99344033 C89.68376108 167.54378369 84.96938881 158.09884024 80.25553989 148.65363026 C72.82929645 133.77293083 65.41569821 118.88596819 58 104 C57.67 145.25 57.34 186.5 57 229 C38.19 229 19.38 229 0 229 C0 153.43 0 77.86 0 0 Z " fill="#FFFFFF" transform="translate(473,65)"/>
<path d="M0 0 C0.94481232 -0.00570007 1.88962463 -0.01140015 2.86306763 -0.01727295 C4.85824481 -0.02667806 6.85343721 -0.03323897 8.84863281 -0.03710938 C11.83948436 -0.04673555 14.82962405 -0.07776931 17.8203125 -0.109375 C41.94981568 -0.2419382 67.49538553 3.18412477 86.140625 20.015625 C87.91702598 21.40143771 87.91702598 21.40143771 89.9765625 21.0859375 C92.4062726 20.02994811 94.27338135 18.68359649 96.3828125 17.078125 C106.99809078 9.5091052 118.18591303 4.63193683 131.0078125 2.203125 C131.93303711 2.02579834 132.85826172 1.84847168 133.81152344 1.66577148 C143.96669331 -0.03559048 154.02678545 -0.13553997 164.30126953 -0.11254883 C167.23898706 -0.10939521 170.17568779 -0.13290868 173.11328125 -0.15820312 C201.04309691 -0.25239654 227.69257509 5.37066156 248.37890625 25.51171875 C265.14266677 43.18010041 268.72507158 64.4931406 270.125 87.94921875 C270.16711483 88.64418394 270.20922966 89.33914913 270.2526207 90.05517387 C271.32702337 108.23640712 271.23968982 126.42124918 271.1451416 144.62689209 C271.12045021 149.91146039 271.111794 155.19607979 271.10023499 160.48069 C271.08125077 168.38826892 271.04277608 176.29552849 271.0078125 184.203125 C253.1878125 184.203125 235.3678125 184.203125 217.0078125 184.203125 C216.94722656 178.33660156 216.88664062 172.47007812 216.82421875 166.42578125 C216.78365087 162.67512416 216.7428405 158.92447276 216.70117188 155.17382812 C216.63527868 149.24066318 216.5702091 143.30749838 216.51049805 137.37426758 C216.46221851 132.58257671 216.40986717 127.79094503 216.35487175 122.99932671 C216.33473174 121.18523093 216.31597811 119.37111914 216.29873848 117.55699348 C217.44875163 85.64110659 217.44875163 85.64110659 204.12109375 58.2421875 C193.71655806 48.55309139 182.51795175 46.84871281 168.6953125 46.890625 C167.1184668 46.86645508 167.1184668 46.86645508 165.50976562 46.84179688 C152.07978718 46.83354243 139.36938251 50.18038661 129.1953125 59.328125 C114.79383404 74.90664737 116.86571111 97.38359582 116.69140625 117.0390625 C116.67078614 119.01445907 116.64978854 120.98985172 116.62843323 122.96524048 C116.57373388 128.11727698 116.52409891 133.26934978 116.47558594 138.42144775 C116.42498552 143.69766395 116.36950245 148.97382868 116.31445312 154.25 C116.20751117 164.56766417 116.10592935 174.88537339 116.0078125 185.203125 C115.04966393 185.19193886 115.04966393 185.19193886 114.07215881 185.18052673 C107.3376487 185.11095172 100.60514666 185.10591059 93.87036133 185.13598633 C91.36739964 185.13904166 88.86436208 185.12641493 86.36157227 185.09692383 C71.09800134 184.92912523 59.71572395 185.58268558 46.85133362 194.1333313 C31.07951205 203.28570563 9.16940846 203.4005986 -8.03710938 198.97338867 C-15.40698883 196.9270748 -22.83704779 194.58516423 -29.49449158 190.76861572 C-37.18380567 186.49573605 -43.25243153 185.32755364 -51.9765625 185.3984375 C-53.15816956 185.38473114 -54.33977661 185.37102478 -55.55718994 185.35690308 C-59.28591957 185.31987826 -63.01330152 185.32329984 -66.7421875 185.328125 C-69.28908307 185.30997918 -71.83596113 185.28917062 -74.3828125 185.265625 C-80.58606839 185.21403171 -86.78873648 185.19553051 -92.9921875 185.203125 C-93.06246964 173.54377969 -93.115388 161.88448679 -93.14762402 150.22497082 C-93.16311501 144.80786207 -93.1840401 139.39090084 -93.21850586 133.97387695 C-93.73480774 50.60282883 -93.73480774 50.60282883 -67.875 24.02734375 C-49.34752842 6.55179821 -24.88812854 0.11930515 0 0 Z M-29.0546875 61.80078125 C-37.96818266 72.85279642 -39.40995069 87.25503652 -39.6796875 101.015625 C-39.70587158 102.21469482 -39.73205566 103.41376465 -39.7590332 104.64916992 C-39.79798561 106.62337703 -39.83669394 108.59760384 -39.86613464 110.57197571 C-39.94077283 115.43297696 -40.10314101 120.28607641 -40.29606628 125.14375305 C-40.43260934 128.84922111 -40.52353232 132.55502533 -40.60586548 136.26205444 C-40.65476101 138.08586392 -40.72076418 139.90930144 -40.80453491 141.73184204 C-41.57895143 151.94694826 -41.57895143 151.94694826 -37.88647461 161.0612793 C-35.34078029 163.129376 -32.88885433 164.67771543 -29.9921875 166.203125 C-28.38318202 167.25828296 -26.77825904 168.31972539 -25.1796875 169.390625 C-9.3113335 178.54736387 9.1664671 182.03116752 27.1953125 178.203125 C39.68623097 174.46458437 52.73302288 167.47791462 62.0078125 158.203125 C62.11190433 156.55066275 62.14634765 154.89376091 62.15307617 153.23803711 C62.15945602 152.17439438 62.16583588 151.11075165 62.17240906 150.01487732 C62.17352188 148.84852249 62.1746347 147.68216766 62.17578125 146.48046875 C62.17910965 145.2736293 62.18243805 144.06678986 62.18586731 142.82337952 C62.19095038 140.24659608 62.19327521 137.66980602 62.19311523 135.09301758 C62.19525891 131.23702219 62.21327766 127.3813336 62.23242188 123.52539062 C62.26162766 111.66812772 62.11896816 99.84850054 61.24609375 88.01953125 C61.18512009 87.08253891 61.12414642 86.14554657 61.06132507 85.18016052 C60.02753687 73.12428471 55.60959393 63.38144466 46.8828125 55.015625 C37.2468701 47.1434042 25.84634341 46.00909693 13.9453125 45.953125 C12.87603516 45.9325 11.80675781 45.911875 10.70507812 45.890625 C-4.82530404 45.81555367 -18.31073411 50.27021699 -29.0546875 61.80078125 Z " fill="#FFFFFF" transform="translate(92.9921875,-0.203125)"/>
<path d="M0 0 C0.33 0.33 0.66 0.66 1 1 C2.71774167 1.12307311 4.44042739 1.17786558 6.16235352 1.20532227 C7.26341934 1.22526749 8.36448517 1.24521271 9.49891663 1.26576233 C10.6968132 1.28247482 11.89470978 1.29918732 13.12890625 1.31640625 C14.34827377 1.33718735 15.5676413 1.35796844 16.82395935 1.37937927 C20.73674645 1.44500428 24.64960317 1.50381972 28.5625 1.5625 C31.20768962 1.60567291 33.85287209 1.64928678 36.49804688 1.69335938 C42.99862336 1.8006988 49.49926979 1.90244067 56 2 C56.04662579 13.44092286 56.08202132 24.8818226 56.10362434 36.32282162 C56.11399994 41.63704251 56.12804344 46.95119774 56.15087891 52.26538086 C56.17283178 57.40716243 56.18461524 62.54888139 56.18975449 67.69070625 C56.19341041 69.6387995 56.20054757 71.58688987 56.21146011 73.53495598 C56.37239391 103.49373311 53.21176889 133.74992324 31.3125 156.25 C10.34996368 176.94917112 -18.24713611 181.3824808 -46.45947266 181.31567383 C-49.23249928 181.3125199 -52.00444837 181.33604859 -54.77734375 181.36132812 C-79.11608529 181.44797745 -105.46957745 177.95840782 -124.21875 160.87109375 C-126.05799784 159.73091264 -126.05799784 159.73091264 -128.4375 160.64453125 C-131.00116108 162.00061417 -133.1928247 163.49591467 -135.5 165.25 C-155.12702272 179.19475322 -178.53914883 181.36917626 -201.86621094 181.31567383 C-204.73150977 181.31252035 -207.59576585 181.33603564 -210.4609375 181.36132812 C-237.44657713 181.45442462 -264.68999402 176.20712876 -284.48046875 156.59375 C-285.31191406 155.7378125 -286.14335937 154.881875 -287 154 C-287.92232422 153.05640625 -287.92232422 153.05640625 -288.86328125 152.09375 C-308.27496609 130.82616764 -308.17227329 99.15442538 -308.09765625 72.140625 C-308.09578772 70.13995398 -308.09436587 68.13928249 -308.09336853 66.13861084 C-308.08957761 60.91087548 -308.07977714 55.68316857 -308.06866455 50.45544434 C-308.05656259 44.16266467 -308.05203186 37.86987541 -308.04621124 31.5770874 C-308.0365631 22.05137191 -308.0173827 12.52571864 -308 3 C-290.51 3 -273.02 3 -255 3 C-254.93941406 7.558125 -254.87882812 12.11625 -254.81640625 16.8125 C-254.77575742 19.7565165 -254.73490733 22.70052763 -254.69335938 25.64453125 C-254.62789758 30.28431902 -254.56305196 34.92410762 -254.50268555 39.56396484 C-254.21615941 61.59896409 -254.21615941 61.59896409 -253.546875 83.625 C-253.51239761 84.55957031 -253.47792023 85.49414062 -253.44239807 86.45703125 C-252.88815833 99.17467958 -251.51415087 112.6080664 -242.65625 122.4921875 C-229.39602684 134.56399443 -213.87305001 134.9725804 -196.83300781 134.21142578 C-185.13755984 133.33860107 -176.11215718 129.25929804 -167.3125 121.6875 C-159.77213318 112.92437099 -155.8079052 104.20421213 -154.83837891 92.71582031 C-154.71914283 91.41237608 -154.71914283 91.41237608 -154.59749794 90.08259964 C-153.81385957 80.90869666 -153.64942856 71.74911298 -153.5859375 62.546875 C-153.56715202 60.78183157 -153.54757366 59.01679643 -153.5272522 57.25177002 C-153.4767021 52.68181323 -153.43667256 48.11182755 -153.39910889 43.54174805 C-153.35857543 38.84807657 -153.30771271 34.15451708 -153.2578125 29.4609375 C-153.16197108 20.30737121 -153.07728371 11.15374052 -153 2 C-152.35457245 2.00523682 -151.7091449 2.01047363 -151.04415894 2.01586914 C-144.26147084 2.06294269 -137.48046819 2.05327203 -130.69775391 2.01220703 C-128.17432169 2.00414907 -125.65080148 2.0100488 -123.12744141 2.03076172 C-108.08528509 2.14386064 -97.31870196 2.04103916 -85 -7 C-82.40628201 -8.22825664 -79.94397175 -9.0273308 -77.1875 -9.875 C-75.44533203 -10.42800781 -75.44533203 -10.42800781 -73.66796875 -10.9921875 C-47.90210231 -18.07162684 -23.20100592 -12.62496296 0 0 Z M-99 29 C-99.10989428 30.9809984 -99.14912361 32.96594331 -99.16113281 34.94995117 C-99.17074036 36.22605759 -99.1803479 37.502164 -99.19024658 38.81694031 C-99.19509983 40.22561464 -99.19937736 41.63429105 -99.203125 43.04296875 C-99.20888035 44.48773703 -99.21463803 45.9325053 -99.22039795 47.37727356 C-99.23092989 50.41973221 -99.23675535 53.46216434 -99.24023438 56.50463867 C-99.24566491 60.36524356 -99.26956425 64.22548595 -99.29820633 68.08597851 C-99.31704414 71.07954339 -99.3220498 74.07302559 -99.32357025 77.06664467 C-99.32655987 78.4869207 -99.33446015 79.90719661 -99.34775543 81.32741356 C-99.48273193 96.88134084 -97.78867698 112.04263121 -86.8125 123.8125 C-76.51922479 133.47418121 -64.84417256 135.38680298 -51.1875 135.3125 C-50.12450684 135.30758545 -49.06151367 135.3026709 -47.96630859 135.29760742 C-33.35730415 135.07897689 -20.81337129 131.45298875 -10.03515625 121.20703125 C4.13310686 105.84221617 2.75279325 84.36847711 2.74121094 64.83374023 C2.74080046 61.14778772 2.79593736 57.46484932 2.86429977 53.77961636 C2.90886696 50.91319437 2.91688627 48.04750568 2.91477203 45.18077278 C2.9217163 43.16711155 2.96492278 41.15367902 3.00897217 39.14048767 C3.05645754 32.48307741 3.05645754 32.48307741 0.27468872 26.6506958 C-1.73572173 24.85875105 -3.70806637 23.40694632 -6 22 C-6.57112518 21.60907669 -7.14225037 21.21815338 -7.73068237 20.81538391 C-36.91815688 1.49014673 -73.88675166 3.88675166 -99 29 Z " fill="#FFFFFF" transform="translate(308,196)"/>
<path d="M0 0 C7.41060927 5.43264043 11.29494616 11.90221566 15.0625 20.1875 C15.58199219 19.52363281 16.10148437 18.85976562 16.63671875 18.17578125 C26.87550293 5.21170146 37.35014317 -4.15222445 54.0625 -6.8125 C57.83801942 -7.10263438 61.5894646 -7.14660301 65.375 -7.125 C66.89903442 -7.11762817 66.89903442 -7.11762817 68.45385742 -7.11010742 C81.66965326 -6.90356096 94.50413767 -3.82591131 104.46875 5.41015625 C119.78714016 22.49316488 116.2088467 49.31626446 116.16015625 70.59375 C116.15828722 73.01468883 116.15686561 75.43562804 116.15586853 77.85656738 C116.15208152 84.17585323 116.14228457 90.49511546 116.13116455 96.81439209 C116.12086764 103.28381023 116.1163533 109.75323225 116.11132812 116.22265625 C116.10065825 128.87761444 116.08362863 141.53255524 116.0625 154.1875 C109.7925 154.1875 103.5225 154.1875 97.0625 154.1875 C97.06329559 152.69825012 97.06409119 151.20900024 97.06491089 149.67462158 C97.06852009 135.60954971 97.04097559 121.54485772 96.9822216 107.47992325 C96.95280827 100.24972284 96.93437192 93.0198146 96.94238281 85.78955078 C96.94934208 79.48269578 96.93508814 73.17629357 96.89606392 66.86954951 C96.87614861 63.53429602 96.86954592 60.20035048 96.88207626 56.86496735 C96.89430966 53.12835441 96.86905294 49.39367115 96.83544922 45.65722656 C96.84767014 44.56893051 96.85989105 43.48063446 96.8724823 42.35935974 C96.73237122 33.65938882 94.21829078 25.69516125 88.21175957 19.18005753 C79.87016449 11.90665842 68.20181489 10.53249613 57.57421875 10.87109375 C48.12855925 11.72214872 39.91865948 15.06095302 33.30859375 22.0390625 C24.79007593 32.7565962 22.77358393 44.77983402 22.74365234 58.14501953 C22.73360672 59.19011185 22.7235611 60.23520416 22.71321106 61.31196594 C22.68257108 64.73140972 22.66539753 68.1507759 22.6484375 71.5703125 C22.62971041 73.95499327 22.61013587 76.33966753 22.5897522 78.72433472 C22.53858788 84.97461084 22.49887831 91.2249084 22.46160889 97.47528076 C22.42147053 103.86378212 22.37042317 110.25219546 22.3203125 116.640625 C22.22373921 129.15618804 22.13927522 141.67180095 22.0625 154.1875 C15.7925 154.1875 9.5225 154.1875 3.0625 154.1875 C3.05663376 152.78594666 3.05076752 151.38439331 3.04472351 149.94036865 C2.9873852 136.69946545 2.91473972 123.4587193 2.82678509 110.21798325 C2.78195968 103.41161403 2.74251513 96.6052956 2.71606445 89.79882812 C2.69049856 83.22403066 2.64950547 76.64943185 2.59931374 70.0747757 C2.58269381 67.57274464 2.57114932 65.0706743 2.56488609 62.56859589 C2.55519209 59.05037379 2.52706873 55.53272709 2.49487305 52.01464844 C2.49630814 50.99180756 2.49774323 49.96896667 2.4992218 48.91513062 C2.36548128 38.50753959 0.73388475 27.60471069 -6.36328125 19.57421875 C-13.16174051 13.03536652 -21.24877753 10.96471051 -30.5 10.75 C-42.76264681 11.13514899 -52.16911324 14.89665715 -60.6875 23.875 C-69.08607144 34.0857922 -71.2274307 46.10461138 -71.25634766 58.93969727 C-71.26639328 59.97488998 -71.2764389 61.0100827 -71.28678894 62.0766449 C-71.31746783 65.46906014 -71.33461347 68.86139703 -71.3515625 72.25390625 C-71.37028644 74.6175961 -71.38986076 76.98127935 -71.4102478 79.34495544 C-71.46144529 85.54428202 -71.50113724 91.74363024 -71.53839111 97.9430542 C-71.57850851 104.27784525 -71.62956551 110.61254723 -71.6796875 116.94726562 C-71.77630014 129.3606144 -71.86075171 141.77401362 -71.9375 154.1875 C-77.8775 154.1875 -83.8175 154.1875 -89.9375 154.1875 C-89.9375 102.0475 -89.9375 49.9075 -89.9375 -3.8125 C-83.9975 -3.8125 -78.0575 -3.8125 -71.9375 -3.8125 C-71.6075 2.4575 -71.2775 8.7275 -70.9375 15.1875 C-69.9475 14.011875 -68.9575 12.83625 -67.9375 11.625 C-50.82273373 -7.7877409 -22.9153268 -14.15135248 0 0 Z " fill="#FFFFFF" transform="translate(1798.9375,139.8125)"/>
<path d="M0 0 C97.44060475 0 97.44060475 0 117 16 C117.98613281 16.77214844 118.97226563 17.54429688 119.98828125 18.33984375 C130.8788912 27.48595846 136.81029631 42.26714273 139 56 C140.73874415 77.28284188 137.76927887 96.52453687 124.83203125 113.9140625 C112.6060908 128.23896972 95.56189041 135.44449561 77 137 C72.58281962 137.13198447 68.16881338 137.11665643 63.75 137.09765625 C62.63753906 137.09664917 61.52507812 137.09564209 60.37890625 137.09460449 C56.25259357 137.0894016 52.12629567 137.07544048 48 137.0625 C38.76 137.041875 29.52 137.02125 20 137 C20 167.36 20 197.72 20 229 C13.4 229 6.8 229 0 229 C0 153.43 0 77.86 0 0 Z M20 18 C20 51.33 20 84.66 20 119 C65.24515547 121.85591376 65.24515547 121.85591376 105 104 C115.56688327 93.07219851 119.48614721 79.62727438 119.25 64.75 C118.36868285 51.5302427 112.56725457 40.06188046 103 31 C81.50225847 12.41649062 44.1298248 18 20 18 Z " fill="#FFFFFF" transform="translate(1071,65)"/>
<path d="M0 0 C1.15928846 0.93284089 2.31176329 1.8742171 3.45703125 2.82421875 C3.98063232 3.25806885 4.5042334 3.69191895 5.04370117 4.13891602 C9.4013955 7.93634529 11.94777788 11.60354759 15.58203125 16.44921875 C15.91203125 7.86921875 16.24203125 -0.71078125 16.58203125 -9.55078125 C22.52203125 -9.55078125 28.46203125 -9.55078125 34.58203125 -9.55078125 C34.58203125 42.58921875 34.58203125 94.72921875 34.58203125 148.44921875 C28.64203125 148.44921875 22.70203125 148.44921875 16.58203125 148.44921875 C16.25203125 138.21921875 15.92203125 127.98921875 15.58203125 117.44921875 C14.07640625 119.44984375 12.57078125 121.45046875 11.01953125 123.51171875 C-0.39844658 138.36113895 -14.35544948 148.92623826 -33.41796875 151.44921875 C-53.83587921 152.76783254 -72.43921403 148.80389645 -88.41796875 135.44921875 C-103.84719661 121.82987099 -113.24905394 102.96095592 -115.41796875 82.44921875 C-116.84841173 53.94502575 -113.08409541 30.4814137 -94.10546875 8.26171875 C-70.90416349 -16.73935049 -27.29863882 -20.91236539 0 0 Z M-80.41796875 20.44921875 C-94.94610337 38.41677918 -97.92458656 60.01178777 -96.41796875 82.44921875 C-94.48782495 98.09612053 -86.53500507 113.32417818 -74.41796875 123.44921875 C-63.17861384 131.81468834 -50.43919455 135.76370867 -36.41796875 134.44921875 C-22.73020478 132.31050563 -12.08280459 126.21525706 -2.41796875 116.44921875 C-1.79277344 115.85753906 -1.16757813 115.26585937 -0.5234375 114.65625 C11.49305866 102.36850111 16.86280174 83.81421625 17.08203125 67.01171875 C16.86543178 49.03032279 11.60965732 32.87001139 -1.03515625 19.66796875 C-7.69130079 13.47011613 -14.77468494 9.24598863 -23.41796875 6.44921875 C-24.07667969 6.22363281 -24.73539063 5.99804688 -25.4140625 5.765625 C-44.93976055 0.24666551 -66.59819857 5.5985383 -80.41796875 20.44921875 Z " fill="#FFFFFF" transform="translate(2071.41796875,145.55078125)"/>
<path d="M0 0 C5.07713485 4.19103113 8.73083884 8.6034437 13.25 13.6875 C13.58 5.4375 13.91 -2.8125 14.25 -11.3125 C20.19 -11.3125 26.13 -11.3125 32.25 -11.3125 C32.25 40.8275 32.25 92.9675 32.25 146.6875 C26.31 146.6875 20.37 146.6875 14.25 146.6875 C13.92 136.4575 13.59 126.2275 13.25 115.6875 C10.28 119.6475 7.31 123.6075 4.25 127.6875 C-7.59900453 140.72140498 -22.02207368 148.96828138 -39.78515625 149.9453125 C-59.33560476 150.6414709 -77.39624463 145.72457681 -92.125 132.4375 C-108.63040858 116.67886849 -117.30994168 96.19881535 -117.953125 73.4375 C-118.30710549 47.40527866 -112.75606782 23.56033 -94.30029297 4.19042969 C-69.27229913 -20.07292938 -27.05860465 -21.33466905 0 0 Z M-80.75 16.6875 C-95.64706632 35.36128735 -100.56599519 56.15832857 -98.75 79.6875 C-96.89687514 95.14328034 -89.4054519 110.29771305 -77.75 120.6875 C-66.14542468 129.61940196 -53.32425076 133.67653366 -38.75 132.6875 C-22.56885813 130.49651309 -9.3845072 122.33583399 0.4375 109.4375 C12.55690375 91.87279754 16.87756124 72.55109778 13.93652344 51.43701172 C10.86449324 34.81583555 2.2422355 21.24010969 -11.30078125 11.21875 C-15.85829538 8.36939508 -20.68538635 6.44433075 -25.75 4.6875 C-26.45382812 4.44 -27.15765625 4.1925 -27.8828125 3.9375 C-45.34699337 -0.99356283 -68.28810208 2.91382335 -80.75 16.6875 Z " fill="#FFFFFF" transform="translate(1517.75,147.3125)"/>
<path d="M0 0 C5.94 0 11.88 0 18 0 C18.33 30.36 18.66 60.72 19 92 C22.96 88.04 26.92 84.08 31 80 C45.61717255 69.4887748 61.25713172 65.73893882 79.09082031 68.30029297 C91.40793633 70.76308871 101.80512984 76.6002879 109 87 C117.96401738 103.0804892 116.27125922 121.96737101 116.1953125 139.7421875 C116.19157637 142.32292572 116.18873224 144.90366537 116.18673706 147.48440552 C116.17992059 153.54719172 116.16421088 159.60989311 116.14403808 165.6726476 C116.12154765 172.58455946 116.11065288 179.49647516 116.10064721 186.4084146 C116.07984003 200.60565009 116.04433571 214.80281976 116 229 C110.06 229 104.12 229 98 229 C97.99191315 227.62350281 97.98382629 226.24700562 97.97549438 224.82879639 C97.89783342 211.82338104 97.81004438 198.81806775 97.71247292 185.8127861 C97.66251163 179.12749053 97.61630784 172.44221035 97.578125 165.75683594 C97.54110923 159.29878178 97.49470574 152.84085565 97.44193649 146.38291168 C97.42347885 143.9255321 97.40833946 141.46812517 97.39665604 139.01070404 C97.37964521 135.55485571 97.35057548 132.09929511 97.31884766 128.64355469 C97.31668747 127.63941528 97.31452728 126.63527588 97.31230164 125.60070801 C97.19534966 115.55518202 96.43024106 105.67217602 91 97 C90.46375 96.113125 89.9275 95.22625 89.375 94.3125 C81.89992203 87.03413461 72.79564046 85.62924635 62.80078125 85.72265625 C50.49438017 86.62065674 39.64579202 91.85973589 31.1875 100.75 C20.81600544 112.9355899 18.89638293 126.46977229 18.79467773 141.92602539 C18.77982834 143.34714127 18.77982834 143.34714127 18.76467896 144.79696655 C18.73334503 147.89717191 18.70841887 150.99739254 18.68359375 154.09765625 C18.66299989 156.25956091 18.64200281 158.42146176 18.62062073 160.58335876 C18.56565114 166.25003968 18.51613197 171.91675542 18.46777344 177.58349609 C18.41737409 183.37535672 18.36178461 189.16716732 18.30664062 194.95898438 C18.19936658 206.30594828 18.09833452 217.6529551 18 229 C12.06 229 6.12 229 0 229 C0 153.43 0 77.86 0 0 Z " fill="#FFFFFF" transform="translate(1243,65)"/>
<path d="M0 0 C0 5.94 0 11.88 0 18 C-3.5578125 18.0928125 -3.5578125 18.0928125 -7.1875 18.1875 C-19.58631182 18.82892713 -30.25241731 22.96830778 -39 32 C-44.59549656 38.94345847 -48.76700215 46.34436974 -51 55 C-51.2475 55.95860931 -51.2475 55.95860931 -51.5 56.93658447 C-53.72887139 67.10762947 -53.3558871 77.4986601 -53.4140625 87.85546875 C-53.43279783 89.9696781 -53.45237296 92.08388016 -53.4727478 94.19807434 C-53.52382521 99.72990599 -53.56358073 105.26176182 -53.60089111 110.79370117 C-53.64108458 116.45171978 -53.69210654 122.10963993 -53.7421875 127.76757812 C-53.83865765 138.84498941 -53.92215171 149.92244218 -54 161 C-59.94 161 -65.88 161 -72 161 C-72 108.86 -72 56.72 -72 3 C-66.06 3 -60.12 3 -54 3 C-53.67 10.59 -53.34 18.18 -53 26 C-52.01 24.329375 -51.02 22.65875 -50 20.9375 C-43.30718861 10.51755413 -33.83142931 3.95582731 -21.8125 0.625 C-14.7251682 -0.69234792 -7.14556974 -0.11252866 0 0 Z " fill="#FFFFFF" transform="translate(1678,133)"/>
</svg>
