<?xml version="1.0" encoding="UTF-8"?><svg id="Layer_1" xmlns="http://www.w3.org/2000/svg" viewBox="0 0 506.28 112.5"><defs><style>.cls-1{fill:#32b4ca;}.cls-2{fill:#003e79;}.cls-3{fill:#1e60aa;}</style></defs><path class="cls-1" d="M74.53,47.75v.02c-1.6-.99-3.67-2.06-6.11-2.81-1.87-.58-4.07-1.21-6.51-1.21-3.64,0-7.78,1.17-12.07,4h-12.58v13.76c0,5.38-.16,8.04-.47,9.64-.54,2.56-1.82,4.62-3.85,6.17-2.03,1.55-5,2.33-8.52,2.33s-6.08-.73-7.9-2.2c-1.81-1.47-2.91-3.27-3.28-5.4-.37-2.14-.55-4.85-.55-9.8v-14.28H0v12.53c0,7.52.34,12,1.03,15.1.68,3.11,1.94,5.73,3.78,7.86,1.84,2.13,4.3,3.84,7.37,5.1,3.08,1.27,7.29,1.9,12.25,1.9,5.99,0,10.33-.69,13.42-2.07,2.19-.98,4.04-2.16,5.58-3.55,1.64,1.5,3.64,2.74,6.02,3.72,3.08,1.27,7.29,1.9,12.25,1.9,5.99,0,10.33-.69,13.42-2.07,3.09-1.38,5.54-3.18,7.33-5.39,1.79-2.21,2.98-4.52,3.55-6.94.83-3.59,1.24-5.35,1.24-12.35v-15.96h-12.7ZM74.53,64.22c0,5.38-.16,5.33-.47,6.93-.54,2.56-1.82,4.62-3.85,6.17-2.03,1.55-5,2.33-8.52,2.33s-6.08-.73-7.9-2.2c-1.81-1.47-2.91-3.27-3.28-5.4-.37-2.14-.55-2.14-.55-7.1v-11c12.46-10.96,23.15-1.28,24.57,0v10.28Z"/><path class="cls-3" d="M86.21,14.87c-.68-3.11-1.94-5.73-3.78-7.86-1.84-2.13-4.3-3.84-7.37-5.1-3.08-1.27-7.29-1.9-12.25-1.9-5.99,0-10.33.69-13.42,2.07-2.19.98-4.04,2.16-5.58,3.55-1.64-1.5-3.64-2.74-6.02-3.72-3.08-1.27-7.29-1.9-12.25-1.9-5.99,0-10.33.69-13.42,2.07-3.09,1.38-5.54,3.18-7.33,5.39-1.79,2.21-2.98,4.52-3.55,6.94-.83,3.59-1.24,8.89-1.24,15.89v13.88h12.7v-.02c1.6.99,3.67,2.06,6.11,2.81,1.87.58,4.07,1.21,6.51,1.21,3.64,0,7.78-1.17,12.07-4h12.58v-.21h0v-11.47c0-5.38.16-11.58.47-13.17.54-2.56,1.82-4.62,3.85-6.17,2.03-1.55,5-2.33,8.52-2.33s6.08.73,7.9,2.2c1.81,1.47,2.91,3.27,3.28,5.4.37,2.14.55,8.39.55,13.34v12.2h12.7v-10.45c0-7.52-.34-15.54-1.03-18.64ZM12.7,37.97v-8.2c0-5.38.16-8.87.47-10.47.54-2.56,1.82-4.62,3.85-6.17,2.03-1.55,5-2.33,8.52-2.33s6.08.73,7.9,2.2c1.81,1.47,2.91,3.27,3.28,5.4.37,2.14.55,5.68.55,10.64v8.92c-12.46,10.96-23.15,1.28-24.57,0Z"/><path class="cls-2" d="M126.99,70.5h-13.33V15.61h15.55l14.57,29.54,14.4-29.54h15.64v54.89h-13.33v-31.35l-16.71,33.58-16.79-33.58v31.35Z"/><path class="cls-2" d="M197.59,70.5h-13.33V15.61h15.55l14.57,29.54,14.4-29.54h15.64v54.89h-13.33v-31.35l-16.71,33.58-16.79-33.58v31.35Z"/><path class="cls-2" d="M261.78,70.5h-4.69V15.61h13.25c6.5,0,11.27,1.32,14.57,3.95,3.54,2.88,5.43,7.24,5.43,12.34,0,5.43-2.14,10.2-6.01,13.17-3.04,2.39-7,3.37-13.25,3.37h-9.3v22.05ZM270.18,44.24c3.21,0,5.51-.25,7.57-.99,4.85-1.48,7.98-6.01,7.98-11.27s-3.21-9.79-8.39-11.27c-2.39-.66-4.77-.91-8.72-.91h-6.83v24.44h8.39Z"/><path class="cls-2" d="M302.6,38.48c3.54-4.44,7.24-6.5,11.93-6.5,3.29,0,6.83,1.32,8.72,3.37,1.89,1.98,2.72,4.86,2.72,9.46v25.68h-4.11v-26c0-5.6-2.72-8.64-7.82-8.64-3.37,0-6.5,1.48-8.72,4.11-2.06,2.47-2.72,4.61-2.72,8.56v21.97h-4.11V15.61h4.11v22.88Z"/><path class="cls-2" d="M367.77,32.64h4.11v37.85h-4.11v-8.39c-3.79,6.17-8.31,9.05-14.15,9.05-10.2,0-17.53-8.15-17.53-19.59s7.24-19.59,17.45-19.59c6.01,0,10.62,2.47,14.24,7.65v-7ZM343.74,40.71c-2.14,2.96-3.37,6.99-3.37,11.11,0,8.89,5.68,15.47,13.25,15.47s14.24-7.32,14.24-16.29-5.68-15.14-13.99-15.14c-4.53,0-7.65,1.48-10.12,4.86Z"/><path class="cls-2" d="M389.66,32.64v6.83c1.23-2.72,2.06-3.79,3.54-5.02,1.97-1.56,4.85-2.47,7.65-2.47h1.65v4.03h-1.4c-6.99,0-11.85,6.17-11.44,14.73v19.75h-4.11v-37.85h4.11Z"/><path class="cls-2" d="M414.27,32.64v5.51c3.13-4.36,6.34-6.17,10.86-6.17,2.8,0,5.35.82,7.16,2.3,1.32,1.07,2.06,2.22,3.04,4.86,2.88-5.1,6.42-7.16,12.26-7.16,4.53,0,7.98,1.48,9.87,4.2,1.56,2.39,1.89,4.2,1.89,10.37v23.95h-4.11v-22.71c0-6.25,0-6.5-1.15-8.39-1.23-2.22-4.03-3.54-7.57-3.54-6.25,0-9.71,4.2-9.71,11.93v22.71h-4.11v-22.71c0-5.18-.49-7.57-1.97-9.38-1.48-1.73-3.54-2.55-6.34-2.55-6.25,0-10.12,4.61-10.12,11.93v22.71h-4.11l.08-37.85h4.03Z"/><path class="cls-2" d="M501.17,32.64h4.11v37.85h-4.11v-8.39c-3.79,6.17-8.31,9.05-14.15,9.05-10.2,0-17.53-8.15-17.53-19.59s7.24-19.59,17.45-19.59c6.01,0,10.62,2.47,14.24,7.65v-7ZM477.14,40.71c-2.14,2.96-3.37,6.99-3.37,11.11,0,8.89,5.68,15.47,13.25,15.47s14.24-7.32,14.24-16.29-5.68-15.14-13.99-15.14c-4.53,0-7.65,1.48-10.12,4.86Z"/><path class="cls-3" d="M160.22,92.05c.19.13.31.29.34.49.03.2-.02.4-.14.59-.11.14-.26.23-.43.24-.18.02-.35-.02-.51-.1-.61-.4-1.27-.72-1.97-.94s-1.45-.34-2.25-.34c-.98,0-1.89.17-2.74.52-.84.35-1.58.84-2.21,1.49-.63.65-1.11,1.42-1.46,2.3-.35.89-.52,1.86-.52,2.92s.18,2.09.53,2.98c.35.89.85,1.66,1.48,2.3.63.64,1.37,1.13,2.21,1.47.84.34,1.74.51,2.7.51.79,0,1.53-.11,2.23-.34.7-.22,1.35-.53,1.97-.92.16-.1.33-.13.52-.11s.33.12.45.28c.14.18.2.37.16.57-.04.2-.15.36-.33.47-.4.26-.88.5-1.42.72-.55.23-1.13.41-1.74.54-.61.14-1.22.21-1.83.21-1.16,0-2.24-.21-3.26-.63-1.01-.42-1.91-1.01-2.7-1.77-.79-.76-1.4-1.68-1.84-2.74-.44-1.06-.66-2.24-.66-3.54s.22-2.41.65-3.46,1.04-1.96,1.81-2.74c.77-.77,1.67-1.37,2.7-1.81,1.03-.43,2.13-.65,3.3-.65.92,0,1.8.13,2.65.39.85.26,1.62.62,2.31,1.08Z"/><path class="cls-3" d="M172.49,95.43c.21,0,.38.07.52.22.14.14.2.31.2.51v6.8c0,1.59-.45,2.81-1.35,3.64s-2.11,1.25-3.64,1.25-2.71-.42-3.6-1.25c-.89-.84-1.34-2.05-1.34-3.64v-6.8c0-.19.07-.36.2-.51s.31-.22.52-.22.38.07.52.22c.14.14.2.31.2.51v6.8c0,1.16.31,2.04.93,2.64.62.6,1.47.9,2.57.9s1.98-.3,2.6-.9c.63-.6.94-1.48.94-2.64v-6.8c0-.19.06-.36.19-.51.13-.14.31-.22.53-.22Z"/><path class="cls-3" d="M177.68,93.52c-.34,0-.59-.08-.76-.23-.17-.15-.25-.37-.25-.66v-.24c0-.29.09-.51.28-.66.18-.15.44-.23.76-.23.31,0,.54.08.71.23.17.15.25.37.25.66v.24c0,.29-.08.51-.25.66-.17.15-.41.23-.74.23ZM178.4,106.95c0,.19-.07.36-.22.51s-.31.22-.51.22c-.21,0-.38-.07-.52-.22-.14-.14-.21-.31-.21-.51v-11.09c0-.19.07-.36.21-.51.14-.14.31-.22.52-.22s.38.07.52.22c.14.14.2.31.2.51v11.09Z"/><path class="cls-3" d="M192.17,89.83c.21,0,.38.07.52.21.14.14.21.31.21.52v16.4c0,.19-.07.36-.22.51-.14.14-.31.22-.51.22-.23,0-.4-.07-.53-.22-.13-.14-.19-.31-.19-.51v-2.87l.41-.34c0,.45-.12.92-.36,1.41-.24.49-.58.94-1.02,1.36-.44.42-.96.76-1.54,1.01-.59.26-1.23.39-1.92.39-1.06,0-2.02-.28-2.88-.84-.86-.56-1.54-1.33-2.04-2.29-.5-.96-.75-2.06-.75-3.3s.25-2.32.75-3.29c.5-.97,1.17-1.74,2.03-2.29.85-.55,1.81-.83,2.87-.83.68,0,1.31.12,1.9.36.59.24,1.12.57,1.58.99.46.42.82.9,1.08,1.43.27.54.4,1.1.4,1.68l-.51-.36v-8.61c0-.19.06-.36.19-.51.13-.14.31-.22.53-.22ZM187.15,106.57c.85,0,1.61-.22,2.27-.66.66-.44,1.18-1.04,1.56-1.81.38-.76.57-1.64.57-2.62s-.19-1.83-.57-2.59c-.38-.76-.9-1.37-1.56-1.81-.66-.44-1.42-.66-2.27-.66s-1.59.22-2.25.66-1.19,1.05-1.57,1.81c-.38.76-.57,1.63-.57,2.59s.19,1.83.57,2.6c.38.77.9,1.38,1.57,1.82.67.44,1.42.66,2.25.66Z"/><path class="cls-3" d="M206.68,95.35c.21,0,.38.07.52.22s.21.32.21.53v10.85c0,.19-.07.36-.22.51-.14.14-.31.22-.51.22-.23,0-.4-.07-.53-.22-.13-.14-.19-.31-.19-.51v-2.87l.41-.19c0,.45-.12.91-.37,1.37-.25.47-.59.9-1.02,1.3s-.94.73-1.53.98c-.59.25-1.23.37-1.92.37-1.08,0-2.05-.28-2.91-.84-.86-.56-1.54-1.33-2.03-2.32-.49-.98-.74-2.08-.74-3.3s.25-2.36.75-3.32c.5-.96,1.17-1.71,2.03-2.25.85-.55,1.81-.82,2.87-.82.69,0,1.34.12,1.94.36s1.13.57,1.58.99c.45.42.8.9,1.06,1.43.26.54.39,1.1.39,1.68l-.51-.36v-3.06c0-.21.06-.39.19-.53.13-.14.31-.22.53-.22ZM201.67,106.57c.85,0,1.61-.22,2.27-.66.66-.44,1.18-1.05,1.56-1.83.38-.78.57-1.65.57-2.62s-.19-1.8-.57-2.56c-.38-.75-.9-1.36-1.56-1.81-.66-.45-1.42-.68-2.27-.68s-1.59.22-2.25.65c-.67.43-1.19,1.03-1.57,1.78s-.57,1.62-.57,2.6.18,1.84.55,2.62c.37.78.89,1.39,1.56,1.83.67.44,1.43.66,2.28.66Z"/><path class="cls-3" d="M216.74,95.26c1,0,1.85.26,2.56.78.71.52,1.19,1.3,1.45,2.33l-.34.1.14-.43c.21-.48.56-.94,1.05-1.36.49-.43,1.05-.77,1.68-1.02.63-.26,1.26-.39,1.9-.39,1.01,0,1.83.22,2.45.65.62.43,1.07,1.02,1.35,1.75.28.73.42,1.56.42,2.47v6.82c0,.19-.07.36-.2.51-.14.14-.31.22-.52.22s-.38-.07-.52-.22-.2-.31-.2-.51v-6.75c0-.66-.1-1.26-.31-1.81s-.54-.98-.99-1.3c-.45-.32-1.05-.48-1.81-.48-.66,0-1.29.16-1.89.48s-1.09.76-1.47,1.3c-.38.55-.57,1.15-.57,1.81v6.75c0,.19-.07.36-.21.51-.14.14-.31.22-.52.22s-.38-.07-.52-.22c-.14-.14-.21-.31-.21-.51v-6.82c0-.66-.1-1.25-.29-1.78-.19-.53-.51-.95-.94-1.27s-1.02-.47-1.76-.47c-.66,0-1.28.16-1.87.47s-1.06.74-1.42,1.27c-.36.53-.54,1.13-.54,1.78v6.82c0,.19-.07.36-.22.51s-.31.22-.51.22c-.23,0-.4-.07-.53-.22s-.19-.31-.19-.51v-10.8c0-.19.07-.36.2-.51s.31-.22.52-.22.38.07.52.22c.14.14.2.31.2.51v2.24l-.65.89c.05-.48.21-.96.47-1.45.27-.48.61-.92,1.05-1.3.43-.39.93-.69,1.48-.93.55-.23,1.14-.35,1.75-.35Z"/><path class="cls-3" d="M244.56,101.5c0,1.22-.27,2.32-.81,3.29-.54.97-1.27,1.74-2.18,2.29-.92.55-1.95.83-3.11.83s-2.17-.28-3.1-.83c-.92-.55-1.66-1.32-2.19-2.29-.54-.97-.81-2.07-.81-3.29s.27-2.34.81-3.3c.54-.96,1.27-1.73,2.19-2.29.92-.56,1.96-.84,3.1-.84s2.19.28,3.11.84c.92.56,1.64,1.33,2.18,2.29s.81,2.07.81,3.3ZM243.12,101.5c0-.98-.2-1.85-.6-2.62-.4-.76-.95-1.37-1.65-1.81s-1.5-.66-2.4-.66-1.68.22-2.38.66-1.25,1.05-1.66,1.81c-.41.76-.61,1.64-.61,2.62s.2,1.85.61,2.6c.41.76.96,1.35,1.66,1.8.7.44,1.49.66,2.38.66s1.7-.22,2.4-.66c.7-.44,1.25-1.04,1.65-1.8.4-.76.6-1.62.6-2.6Z"/><path class="cls-3" d="M246.83,105.72c-.13-.19-.19-.38-.18-.57,0-.18.11-.33.3-.45.13-.11.28-.16.45-.14.17.02.33.1.47.24.43.56.96,1.02,1.58,1.36.62.35,1.35.52,2.21.52.45,0,.9-.08,1.34-.23.44-.15.81-.39,1.1-.7.29-.31.43-.71.43-1.19s-.14-.9-.43-1.21c-.29-.31-.66-.55-1.12-.72-.46-.18-.94-.33-1.46-.46-.55-.14-1.08-.31-1.59-.49-.51-.18-.97-.42-1.36-.7-.39-.28-.71-.62-.95-1.03-.24-.4-.36-.89-.36-1.47,0-.68.18-1.27.55-1.78s.87-.92,1.51-1.21c.63-.29,1.35-.43,2.16-.43.4,0,.84.05,1.3.16.47.11.92.28,1.37.52.45.24.85.57,1.21.99.14.14.22.31.22.49s-.08.35-.24.49c-.13.1-.28.14-.45.14s-.31-.06-.42-.19c-.39-.43-.84-.76-1.37-.99-.53-.22-1.1-.34-1.71-.34-.47,0-.9.08-1.31.23-.41.15-.75.38-1.03.69s-.41.71-.41,1.21c.03.47.2.84.49,1.13.3.29.69.53,1.18.72s1.04.37,1.65.53c.51.13,1.01.28,1.48.46.47.18.89.4,1.25.66.36.27.65.6.87,1,.22.4.33.91.33,1.52,0,.71-.2,1.32-.59,1.83-.39.51-.92.91-1.58,1.18-.66.27-1.39.41-2.19.41-.87,0-1.71-.17-2.52-.51-.81-.34-1.53-.9-2.16-1.69Z"/><path class="cls-3" d="M267.01,106.95c0,.19-.07.36-.22.51-.14.14-.31.22-.51.22-.21,0-.38-.07-.52-.22s-.2-.31-.2-.51v-16.4c0-.19.07-.36.22-.51s.31-.22.51-.22c.21,0,.38.07.52.22.14.14.2.31.2.51v16.4Z"/><path class="cls-3" d="M280.97,95.35c.21,0,.38.07.52.22s.21.32.21.53v10.85c0,.19-.07.36-.22.51-.14.14-.31.22-.51.22-.23,0-.4-.07-.53-.22-.13-.14-.19-.31-.19-.51v-2.87l.41-.19c0,.45-.12.91-.37,1.37-.25.47-.59.9-1.02,1.3s-.94.73-1.53.98c-.59.25-1.23.37-1.92.37-1.08,0-2.05-.28-2.91-.84-.86-.56-1.54-1.33-2.03-2.32-.49-.98-.74-2.08-.74-3.3s.25-2.36.75-3.32c.5-.96,1.17-1.71,2.03-2.25.85-.55,1.81-.82,2.87-.82.69,0,1.34.12,1.94.36s1.13.57,1.58.99c.45.42.8.9,1.06,1.43.26.54.39,1.1.39,1.68l-.51-.36v-3.06c0-.21.06-.39.19-.53.13-.14.31-.22.53-.22ZM275.96,106.57c.85,0,1.61-.22,2.27-.66.66-.44,1.18-1.05,1.56-1.83.38-.78.57-1.65.57-2.62s-.19-1.8-.57-2.56c-.38-.75-.9-1.36-1.56-1.81-.66-.45-1.42-.68-2.27-.68s-1.59.22-2.25.65c-.67.43-1.19,1.03-1.57,1.78s-.57,1.62-.57,2.6.18,1.84.55,2.62c.37.78.89,1.39,1.56,1.83.67.44,1.43.66,2.28.66Z"/><path class="cls-3" d="M291.37,105.72c-.13-.19-.19-.38-.18-.57,0-.18.11-.33.3-.45.13-.11.28-.16.45-.14.17.02.33.1.47.24.43.56.96,1.02,1.58,1.36.62.35,1.35.52,2.21.52.45,0,.9-.08,1.34-.23.44-.15.81-.39,1.1-.7.29-.31.43-.71.43-1.19s-.14-.9-.43-1.21c-.29-.31-.66-.55-1.12-.72-.46-.18-.94-.33-1.46-.46-.55-.14-1.08-.31-1.59-.49-.51-.18-.97-.42-1.36-.7-.39-.28-.71-.62-.95-1.03-.24-.4-.36-.89-.36-1.47,0-.68.18-1.27.55-1.78s.87-.92,1.51-1.21c.63-.29,1.35-.43,2.16-.43.4,0,.84.05,1.3.16.47.11.92.28,1.37.52.45.24.85.57,1.21.99.14.14.22.31.22.49s-.08.35-.24.49c-.13.1-.28.14-.45.14s-.31-.06-.42-.19c-.39-.43-.84-.76-1.37-.99-.53-.22-1.1-.34-1.71-.34-.47,0-.9.08-1.31.23-.41.15-.75.38-1.03.69s-.41.71-.41,1.21c.03.47.2.84.49,1.13.3.29.69.53,1.18.72s1.04.37,1.65.53c.51.13,1.01.28,1.48.46.47.18.89.4,1.25.66.36.27.65.6.87,1,.22.4.33.91.33,1.52,0,.71-.2,1.32-.59,1.83-.39.51-.92.91-1.58,1.18-.66.27-1.39.41-2.19.41-.87,0-1.71-.17-2.52-.51-.81-.34-1.53-.9-2.16-1.69Z"/><path class="cls-3" d="M313.57,95.35c.21,0,.38.07.52.22.14.14.21.32.21.53v10.85c0,.19-.07.36-.22.51s-.31.22-.51.22c-.22,0-.4-.07-.53-.22-.13-.14-.19-.31-.19-.51v-2.87l.41-.19c0,.45-.12.91-.37,1.37-.25.47-.59.9-1.02,1.3-.43.4-.94.73-1.53.98s-1.23.37-1.92.37c-1.08,0-2.05-.28-2.91-.84s-1.53-1.33-2.03-2.32c-.49-.98-.74-2.08-.74-3.3s.25-2.36.75-3.32c.5-.96,1.17-1.71,2.03-2.25s1.81-.82,2.87-.82c.69,0,1.34.12,1.94.36.6.24,1.13.57,1.58.99.45.42.8.9,1.06,1.43.26.54.39,1.1.39,1.68l-.51-.36v-3.06c0-.21.06-.39.19-.53.13-.14.31-.22.53-.22ZM308.56,106.57c.85,0,1.61-.22,2.27-.66.66-.44,1.18-1.05,1.55-1.83s.57-1.65.57-2.62-.19-1.8-.57-2.56c-.38-.75-.9-1.36-1.55-1.81-.66-.45-1.42-.68-2.27-.68s-1.59.22-2.25.65c-.67.43-1.19,1.03-1.57,1.78-.38.76-.57,1.62-.57,2.6s.18,1.84.55,2.62c.37.78.89,1.39,1.55,1.83.67.44,1.43.66,2.28.66Z"/><path class="cls-3" d="M319.67,106.95c0,.19-.07.36-.22.51s-.31.22-.51.22c-.21,0-.38-.07-.52-.22-.14-.14-.21-.31-.21-.51v-16.4c0-.19.07-.36.22-.51s.31-.22.51-.22c.21,0,.38.07.52.22.14.14.21.31.21.51v16.4Z"/><path class="cls-3" d="M332.72,95.43c.21,0,.38.07.52.22.14.14.2.31.2.51v6.8c0,1.59-.45,2.81-1.35,3.64-.9.84-2.11,1.25-3.64,1.25s-2.71-.42-3.6-1.25c-.89-.84-1.34-2.05-1.34-3.64v-6.8c0-.19.07-.36.2-.51.14-.14.31-.22.52-.22s.38.07.52.22c.14.14.2.31.2.51v6.8c0,1.16.31,2.04.93,2.64.62.6,1.47.9,2.57.9s1.98-.3,2.6-.9c.63-.6.94-1.48.94-2.64v-6.8c0-.19.06-.36.19-.51s.31-.22.53-.22Z"/><path class="cls-3" d="M347.24,89.83c.21,0,.38.07.52.21.14.14.21.31.21.52v16.4c0,.19-.07.36-.22.51-.14.14-.31.22-.51.22-.23,0-.4-.07-.53-.22s-.19-.31-.19-.51v-2.87l.41-.34c0,.45-.12.92-.36,1.41-.24.49-.58.94-1.02,1.36s-.96.76-1.54,1.01c-.59.26-1.23.39-1.92.39-1.06,0-2.02-.28-2.88-.84-.86-.56-1.54-1.33-2.04-2.29-.5-.96-.75-2.06-.75-3.3s.25-2.32.75-3.29c.5-.97,1.17-1.74,2.03-2.29.85-.55,1.81-.83,2.87-.83.68,0,1.31.12,1.91.36.59.24,1.12.57,1.58.99.46.42.82.9,1.08,1.43.27.54.4,1.1.4,1.68l-.51-.36v-8.61c0-.19.06-.36.19-.51s.31-.22.53-.22ZM342.22,106.57c.85,0,1.61-.22,2.27-.66.66-.44,1.18-1.04,1.56-1.81.38-.76.57-1.64.57-2.62s-.19-1.83-.57-2.59c-.38-.76-.9-1.37-1.56-1.81s-1.42-.66-2.27-.66-1.59.22-2.25.66-1.19,1.05-1.57,1.81c-.38.76-.57,1.63-.57,2.59s.19,1.83.57,2.6.9,1.38,1.57,1.82c.67.44,1.42.66,2.25.66Z"/><path class="cls-3" d="M368.33,89.83c.21,0,.38.07.52.21.14.14.21.31.21.52v16.4c0,.19-.07.36-.22.51-.14.14-.31.22-.51.22-.23,0-.4-.07-.53-.22s-.19-.31-.19-.51v-2.87l.41-.34c0,.45-.12.92-.36,1.41-.24.49-.58.94-1.02,1.36s-.96.76-1.54,1.01c-.59.26-1.23.39-1.92.39-1.06,0-2.02-.28-2.88-.84-.86-.56-1.54-1.33-2.04-2.29-.5-.96-.75-2.06-.75-3.3s.25-2.32.75-3.29c.5-.97,1.17-1.74,2.03-2.29.85-.55,1.81-.83,2.87-.83.68,0,1.31.12,1.91.36.59.24,1.12.57,1.58.99.46.42.82.9,1.08,1.43.27.54.4,1.1.4,1.68l-.51-.36v-8.61c0-.19.06-.36.19-.51s.31-.22.53-.22ZM363.32,106.57c.85,0,1.61-.22,2.27-.66.66-.44,1.18-1.04,1.56-1.81.38-.76.57-1.64.57-2.62s-.19-1.83-.57-2.59c-.38-.76-.9-1.37-1.56-1.81s-1.42-.66-2.27-.66-1.59.22-2.25.66-1.19,1.05-1.57,1.81c-.38.76-.57,1.63-.57,2.59s.19,1.83.57,2.6.9,1.38,1.57,1.82c.67.44,1.42.66,2.25.66Z"/><path class="cls-3" d="M378.32,107.92c-1.24,0-2.33-.27-3.28-.8-.95-.53-1.69-1.27-2.22-2.22-.53-.95-.8-2.06-.8-3.33,0-1.37.27-2.53.81-3.5.54-.96,1.24-1.71,2.1-2.23s1.77-.78,2.74-.78c.71,0,1.39.12,2.06.37.67.25,1.26.62,1.77,1.11.51.49.93,1.09,1.25,1.8s.49,1.53.51,2.46c0,.19-.07.36-.22.49-.14.14-.31.21-.51.21h-9.67l-.29-1.3h9.5l-.31.29v-.48c-.08-.75-.33-1.4-.75-1.93s-.92-.93-1.51-1.21-1.2-.41-1.84-.41c-.48,0-.98.1-1.48.29-.51.19-.96.49-1.37.9-.41.41-.74.93-1,1.57-.26.64-.39,1.39-.39,2.25,0,.95.19,1.81.58,2.58.39.77.94,1.38,1.66,1.83.72.45,1.6.68,2.63.68.55,0,1.04-.08,1.5-.24.45-.16.85-.37,1.19-.64.35-.27.63-.54.86-.83.18-.14.35-.22.51-.22.18,0,.32.06.45.19.12.13.18.27.18.43,0,.19-.08.36-.24.51-.48.58-1.11,1.08-1.88,1.51s-1.62.64-2.53.64Z"/><path class="cls-3" d="M392.04,95.4h5.62c.19,0,.35.07.48.21.13.14.19.3.19.49,0,.18-.06.33-.19.46-.13.13-.29.19-.48.19h-5.62c-.19,0-.36-.07-.49-.21-.14-.14-.21-.29-.21-.47,0-.19.07-.35.21-.48.14-.13.3-.19.49-.19ZM394.52,92c.21,0,.38.07.52.22.14.14.21.31.21.51v12.1c0,.45.06.79.18,1.01.12.22.28.37.47.45s.39.11.58.11c.13,0,.24-.02.35-.06.1-.04.22-.06.35-.06.14,0,.27.06.37.17.1.11.16.26.16.43,0,.22-.13.41-.39.57-.26.15-.56.23-.92.23-.14,0-.36-.01-.65-.04s-.59-.11-.89-.27c-.31-.15-.56-.42-.76-.81-.2-.39-.3-.94-.3-1.66v-12.18c0-.19.07-.36.21-.51.14-.14.31-.22.52-.22Z"/><path class="cls-3" d="M410.22,95.43c.21,0,.38.07.52.22.14.14.2.31.2.51v6.8c0,1.59-.45,2.81-1.35,3.64-.9.84-2.11,1.25-3.64,1.25s-2.71-.42-3.6-1.25c-.89-.84-1.34-2.05-1.34-3.64v-6.8c0-.19.07-.36.2-.51.14-.14.31-.22.52-.22s.38.07.52.22c.14.14.2.31.2.51v6.8c0,1.16.31,2.04.93,2.64.62.6,1.47.9,2.57.9s1.98-.3,2.6-.9c.63-.6.94-1.48.94-2.64v-6.8c0-.19.06-.36.19-.51s.31-.22.53-.22Z"/><path class="cls-3" d="M427.12,95.06c1.06,0,1.91.21,2.54.64s1.09,1,1.37,1.74c.28.73.42,1.54.42,2.42v7.09c0,.19-.07.36-.22.51s-.31.22-.51.22c-.22,0-.4-.07-.53-.22-.13-.14-.19-.31-.19-.51v-7.02c0-.64-.11-1.23-.31-1.76-.21-.53-.55-.96-1.02-1.28s-1.1-.48-1.87-.48c-.69,0-1.35.16-1.97.48s-1.12.75-1.51,1.28c-.39.53-.58,1.12-.58,1.76v7.02c0,.19-.07.36-.22.51s-.31.22-.51.22c-.23,0-.4-.07-.53-.22-.13-.14-.19-.31-.19-.51v-10.8c0-.19.07-.36.21-.51.14-.14.31-.22.52-.22s.38.07.52.22c.14.14.21.31.21.51v2.03l-.55.87c.03-.51.2-1.01.49-1.48.3-.47.68-.9,1.15-1.28.47-.38.98-.68,1.56-.89.57-.22,1.15-.32,1.72-.32Z"/><path class="cls-3" d="M440.72,107.92c-1.24,0-2.33-.27-3.28-.8-.95-.53-1.69-1.27-2.22-2.22-.53-.95-.8-2.06-.8-3.33,0-1.37.27-2.53.81-3.5s1.24-1.71,2.1-2.23,1.77-.78,2.74-.78c.71,0,1.39.12,2.06.37.67.25,1.26.62,1.77,1.11.51.49.93,1.09,1.25,1.8s.49,1.53.51,2.46c0,.19-.07.36-.22.49-.14.14-.31.21-.51.21h-9.67l-.29-1.3h9.5l-.31.29v-.48c-.08-.75-.33-1.4-.75-1.93s-.92-.93-1.51-1.21c-.59-.27-1.2-.41-1.85-.41-.48,0-.98.1-1.48.29-.51.19-.96.49-1.37.9s-.74.93-1,1.57c-.26.64-.39,1.39-.39,2.25,0,.95.19,1.81.58,2.58.39.77.94,1.38,1.66,1.83.72.45,1.6.68,2.63.68.55,0,1.04-.08,1.49-.24.45-.16.85-.37,1.19-.64.35-.27.63-.54.86-.83.18-.14.35-.22.51-.22.18,0,.33.06.45.19.12.13.18.27.18.43,0,.19-.08.36-.24.51-.48.58-1.11,1.08-1.88,1.51-.77.43-1.62.64-2.53.64Z"/><path class="cls-3" d="M453.57,95.06c.71,0,1.37.12,1.98.37.61.25,1.15.57,1.6.96.46.39.82.81,1.07,1.25.26.44.39.86.39,1.27l-.39-.58v-2.24c0-.21.07-.39.21-.53.14-.14.31-.22.52-.22s.38.07.52.22c.14.14.21.32.21.53v10.44c0,1.29-.27,2.37-.8,3.25-.53.88-1.25,1.56-2.16,2.01-.91.46-1.94.69-3.1.69-.56,0-1.15-.07-1.77-.22s-1.15-.33-1.59-.55c-.44-.23-.7-.46-.76-.7-.11-.14-.16-.29-.16-.42,0-.14.08-.25.21-.35.14-.11.31-.12.49-.04.18.09.45.21.81.35.14.05.36.12.64.22.28.1.61.18.99.25.38.07.77.11,1.17.11,1.45,0,2.57-.41,3.38-1.24s1.21-1.92,1.21-3.27v-2.31l.27.07c-.14.58-.39,1.08-.72,1.52-.34.43-.73.8-1.18,1.1s-.93.52-1.45.67c-.52.15-1.03.23-1.54.23-1.11,0-2.11-.28-3-.84-.89-.56-1.6-1.33-2.11-2.29-.51-.96-.77-2.06-.77-3.3s.26-2.32.77-3.29c.51-.97,1.21-1.74,2.1-2.29.88-.55,1.88-.83,2.99-.83ZM453.72,96.41c-.87,0-1.65.22-2.35.66-.7.44-1.25,1.05-1.64,1.81-.39.76-.59,1.63-.59,2.59s.2,1.83.59,2.6.94,1.38,1.64,1.82c.7.44,1.48.66,2.35.66s1.67-.22,2.36-.65c.69-.43,1.24-1.03,1.64-1.8.4-.76.6-1.64.6-2.64s-.2-1.88-.6-2.64c-.4-.76-.95-1.36-1.64-1.78s-1.48-.64-2.36-.64Z"/><path class="cls-3" d="M474.38,101.5c0,1.22-.27,2.32-.81,3.29-.54.97-1.27,1.74-2.18,2.29-.92.55-1.95.83-3.11.83s-2.17-.28-3.1-.83c-.92-.55-1.66-1.32-2.19-2.29-.54-.97-.81-2.07-.81-3.29s.27-2.34.81-3.3c.54-.96,1.27-1.73,2.19-2.29.92-.56,1.96-.84,3.1-.84s2.19.28,3.11.84c.92.56,1.64,1.33,2.18,2.29s.81,2.07.81,3.3ZM472.93,101.5c0-.98-.2-1.85-.6-2.62-.4-.76-.95-1.37-1.65-1.81-.7-.44-1.5-.66-2.4-.66s-1.68.22-2.38.66c-.7.44-1.25,1.05-1.66,1.81-.41.76-.62,1.64-.62,2.62s.21,1.85.62,2.6c.41.76.96,1.35,1.66,1.8.7.44,1.49.66,2.38.66s1.7-.22,2.4-.66c.7-.44,1.25-1.04,1.65-1.8.4-.76.6-1.62.6-2.6Z"/><path class="cls-3" d="M482.68,95.06c.77,0,1.48.08,2.12.25s1.16.4,1.56.69c.39.29.59.6.59.94,0,.16-.06.32-.18.47s-.27.23-.45.23c-.21,0-.37-.05-.49-.14-.12-.1-.24-.21-.35-.34-.11-.13-.28-.25-.51-.36-.21-.1-.51-.18-.9-.27-.39-.08-.83-.12-1.31-.12-.9,0-1.71.23-2.44.68-.72.45-1.29,1.06-1.71,1.82-.42.76-.63,1.62-.63,2.57s.2,1.83.59,2.6.95,1.38,1.66,1.82c.72.44,1.54.66,2.47.66.64,0,1.15-.06,1.51-.17.36-.11.66-.24.9-.39.32-.18.55-.35.69-.52.14-.17.32-.25.54-.25.19,0,.35.06.46.18.11.12.17.28.17.47,0,.26-.19.54-.57.86-.38.31-.9.59-1.56.82s-1.42.35-2.29.35c-1.19,0-2.24-.28-3.15-.84s-1.62-1.33-2.12-2.3c-.51-.97-.76-2.07-.76-3.29s.26-2.24.77-3.21,1.23-1.74,2.15-2.33c.92-.59,1.99-.88,3.23-.88Z"/><path class="cls-3" d="M490.42,93.52c-.34,0-.59-.08-.76-.23-.17-.15-.25-.37-.25-.66v-.24c0-.29.09-.51.28-.66.18-.15.44-.23.76-.23s.54.08.71.23c.17.15.25.37.25.66v.24c0,.29-.08.51-.25.66-.17.15-.41.23-.74.23ZM491.14,106.95c0,.19-.07.36-.22.51s-.31.22-.51.22c-.21,0-.38-.07-.52-.22-.14-.14-.21-.31-.21-.51v-11.09c0-.19.07-.36.21-.51.14-.14.31-.22.52-.22s.38.07.52.22c.14.14.2.31.2.51v11.09Z"/><path class="cls-3" d="M506.28,101.5c0,1.22-.27,2.32-.81,3.29-.54.97-1.27,1.74-2.18,2.29-.92.55-1.95.83-3.11.83s-2.17-.28-3.1-.83c-.92-.55-1.66-1.32-2.19-2.29-.54-.97-.81-2.07-.81-3.29s.27-2.34.81-3.3c.54-.96,1.27-1.73,2.19-2.29.92-.56,1.96-.84,3.1-.84s2.19.28,3.11.84c.92.56,1.64,1.33,2.18,2.29s.81,2.07.81,3.3ZM504.83,101.5c0-.98-.2-1.85-.6-2.62-.4-.76-.95-1.37-1.65-1.81-.7-.44-1.5-.66-2.4-.66s-1.68.22-2.38.66c-.7.44-1.25,1.05-1.66,1.81-.41.76-.62,1.64-.62,2.62s.21,1.85.62,2.6c.41.76.96,1.35,1.66,1.8.7.44,1.49.66,2.38.66s1.7-.22,2.4-.66c.7-.44,1.25-1.04,1.65-1.8.4-.76.6-1.62.6-2.6Z"/><path class="cls-1" d="M143.63,89.34l-19.11,19.44-13.11-12.23h0c2.31-1.21,8.56-1.88,12,1.76.21.22.75.89,1.04.84,1.13-1.08,2.26-2.17,3.35-3.3,3.13-3.23,10.77-6.52,15.82-6.52h0Z"/></svg>