<?xml version="1.0" encoding="UTF-8"?><svg id="Layer_1" xmlns="http://www.w3.org/2000/svg" viewBox="0 0 505.28 90.46"><defs><style>.cls-1{fill:#32b4ca;}.cls-2{fill:#003e79;}.cls-3{fill:#1e60aa;}</style></defs><path class="cls-1" d="M74.53,47.75v.02c-1.6-.99-3.67-2.06-6.11-2.81-1.87-.58-4.07-1.21-6.51-1.21-3.64,0-7.78,1.17-12.07,4h-12.58v13.76c0,5.38-.16,8.04-.47,9.64-.54,2.56-1.82,4.62-3.85,6.17-2.03,1.55-5,2.33-8.52,2.33s-6.08-.73-7.9-2.2c-1.81-1.47-2.91-3.27-3.28-5.4-.37-2.14-.55-4.85-.55-9.8v-14.28H0v12.53c0,7.52.34,12,1.03,15.1.68,3.11,1.94,5.73,3.78,7.86,1.84,2.13,4.3,3.84,7.37,5.1,3.08,1.27,7.29,1.9,12.25,1.9,5.99,0,10.33-.69,13.42-2.07,2.19-.98,4.04-2.16,5.58-3.55,1.64,1.5,3.64,2.74,6.02,3.72,3.08,1.27,7.29,1.9,12.25,1.9,5.99,0,10.33-.69,13.42-2.07,3.09-1.38,5.54-3.18,7.33-5.39,1.79-2.21,2.98-4.52,3.55-6.94.83-3.59,1.24-5.35,1.24-12.35v-15.96h-12.7ZM74.53,64.22c0,5.38-.16,5.33-.47,6.93-.54,2.56-1.82,4.62-3.85,6.17-2.03,1.55-5,2.33-8.52,2.33s-6.08-.73-7.9-2.2c-1.81-1.47-2.91-3.27-3.28-5.4-.37-2.14-.55-2.14-.55-7.1v-11c12.46-10.96,23.15-1.28,24.57,0v10.28Z"/><path class="cls-3" d="M86.21,14.87c-.68-3.11-1.94-5.73-3.78-7.86-1.84-2.13-4.3-3.84-7.37-5.1-3.08-1.27-7.29-1.9-12.25-1.9-5.99,0-10.33.69-13.42,2.07-2.19.98-4.04,2.16-5.58,3.55-1.64-1.5-3.64-2.74-6.02-3.72-3.08-1.27-7.29-1.9-12.25-1.9-5.99,0-10.33.69-13.42,2.07-3.09,1.38-5.54,3.18-7.33,5.39-1.79,2.21-2.98,4.52-3.55,6.94-.83,3.59-1.24,8.89-1.24,15.89v13.88h12.7v-.02c1.6.99,3.67,2.06,6.11,2.81,1.87.58,4.07,1.21,6.51,1.21,3.64,0,7.78-1.17,12.07-4h12.58v-.21h0v-11.47c0-5.38.16-11.58.47-13.17.54-2.56,1.82-4.62,3.85-6.17,2.03-1.55,5-2.33,8.52-2.33s6.08.73,7.9,2.2c1.81,1.47,2.91,3.27,3.28,5.4.37,2.14.55,8.39.55,13.34v12.2h12.7v-10.45c0-7.52-.34-15.54-1.03-18.64ZM12.7,37.97v-8.2c0-5.38.16-8.87.47-10.47.54-2.56,1.82-4.62,3.85-6.17,2.03-1.55,5-2.33,8.52-2.33s6.08.73,7.9,2.2c1.81,1.47,2.91,3.27,3.28,5.4.37,2.14.55,5.68.55,10.64v8.92c-12.46,10.96-23.15,1.28-24.57,0Z"/><path class="cls-2" d="M126.99,70.5h-13.33V15.61h15.55l14.57,29.54,14.4-29.54h15.64v54.89h-13.33v-31.35l-16.71,33.58-16.79-33.58v31.35Z"/><path class="cls-2" d="M197.59,70.5h-13.33V15.61h15.55l14.57,29.54,14.4-29.54h15.64v54.89h-13.33v-31.35l-16.71,33.58-16.79-33.58v31.35Z"/><path class="cls-2" d="M261.78,70.5h-4.69V15.61h13.25c6.5,0,11.27,1.32,14.57,3.95,3.54,2.88,5.43,7.24,5.43,12.34,0,5.43-2.14,10.2-6.01,13.17-3.04,2.39-7,3.37-13.25,3.37h-9.3v22.05ZM270.18,44.24c3.21,0,5.51-.25,7.57-.99,4.85-1.48,7.98-6.01,7.98-11.27s-3.21-9.79-8.39-11.27c-2.39-.66-4.77-.91-8.72-.91h-6.83v24.44h8.39Z"/><path class="cls-2" d="M302.6,38.48c3.54-4.44,7.24-6.5,11.93-6.5,3.29,0,6.83,1.32,8.72,3.37,1.89,1.98,2.72,4.86,2.72,9.46v25.68h-4.11v-26c0-5.6-2.72-8.64-7.82-8.64-3.37,0-6.5,1.48-8.72,4.11-2.06,2.47-2.72,4.61-2.72,8.56v21.97h-4.11V15.61h4.11v22.88Z"/><path class="cls-2" d="M367.77,32.64h4.11v37.85h-4.11v-8.39c-3.79,6.17-8.31,9.05-14.15,9.05-10.2,0-17.53-8.15-17.53-19.59s7.24-19.59,17.45-19.59c6.01,0,10.62,2.47,14.24,7.65v-7ZM343.74,40.71c-2.14,2.96-3.37,6.99-3.37,11.11,0,8.89,5.68,15.47,13.25,15.47s14.24-7.32,14.24-16.29-5.68-15.14-13.99-15.14c-4.53,0-7.65,1.48-10.12,4.86Z"/><path class="cls-2" d="M389.66,32.64v6.83c1.23-2.72,2.06-3.79,3.54-5.02,1.97-1.56,4.85-2.47,7.65-2.47h1.65v4.03h-1.4c-6.99,0-11.85,6.17-11.44,14.73v19.75h-4.11v-37.85h4.11Z"/><path class="cls-2" d="M414.27,32.64v5.51c3.13-4.36,6.34-6.17,10.86-6.17,2.8,0,5.35.82,7.16,2.3,1.32,1.07,2.06,2.22,3.04,4.86,2.88-5.1,6.42-7.16,12.26-7.16,4.53,0,7.98,1.48,9.87,4.2,1.56,2.39,1.89,4.2,1.89,10.37v23.95h-4.11v-22.71c0-6.25,0-6.5-1.15-8.39-1.23-2.22-4.03-3.54-7.57-3.54-6.25,0-9.71,4.2-9.71,11.93v22.71h-4.11v-22.71c0-5.18-.49-7.57-1.97-9.38-1.48-1.73-3.54-2.55-6.34-2.55-6.25,0-10.12,4.61-10.12,11.93v22.71h-4.11l.08-37.85h4.03Z"/><path class="cls-2" d="M501.17,32.64h4.11v37.85h-4.11v-8.39c-3.79,6.17-8.31,9.05-14.15,9.05-10.2,0-17.53-8.15-17.53-19.59s7.24-19.59,17.45-19.59c6.01,0,10.62,2.47,14.24,7.65v-7ZM477.14,40.71c-2.14,2.96-3.37,6.99-3.37,11.11,0,8.89,5.68,15.47,13.25,15.47s14.24-7.32,14.24-16.29-5.68-15.14-13.99-15.14c-4.53,0-7.65,1.48-10.12,4.86Z"/></svg>