<?xml version="1.0" encoding="UTF-8"?><svg id="Layer_1" xmlns="http://www.w3.org/2000/svg" viewBox="0 0 438.07 227.21"><defs><style>.cls-1{fill:#32b4ca;}.cls-2{fill:#003e79;}.cls-3{fill:#1e60aa;}</style></defs><path class="cls-2" d="M14.91,224.72H0v-61.4h17.4l16.29,33.05,16.11-33.05h17.49v61.4h-14.91v-35.07l-18.69,37.56-18.78-37.56v35.07Z"/><path class="cls-2" d="M93.89,224.72h-14.91v-61.4h17.4l16.29,33.05,16.11-33.05h17.49v61.4h-14.91v-35.07l-18.69,37.56-18.78-37.56v35.07Z"/><path class="cls-2" d="M165.69,224.72h-5.25v-61.4h14.82c7.27,0,12.61,1.47,16.29,4.42,3.96,3.22,6.08,8.1,6.08,13.81,0,6.08-2.39,11.42-6.72,14.73-3.41,2.67-7.82,3.77-14.82,3.77h-10.4v24.67ZM175.08,195.36c3.59,0,6.17-.28,8.47-1.1,5.43-1.66,8.93-6.72,8.93-12.61s-3.59-10.95-9.39-12.61c-2.67-.74-5.34-1.01-9.76-1.01h-7.64v27.34h9.39Z"/><path class="cls-2" d="M211.35,188.91c3.96-4.97,8.1-7.27,13.35-7.27,3.68,0,7.64,1.47,9.76,3.77,2.12,2.21,3.04,5.43,3.04,10.59v28.72h-4.6v-29.09c0-6.26-3.04-9.67-8.74-9.67-3.77,0-7.27,1.66-9.76,4.6-2.3,2.76-3.04,5.15-3.04,9.57v24.58h-4.6v-61.4h4.6v25.59Z"/><path class="cls-2" d="M284.26,182.38h4.6v42.35h-4.6v-9.39c-4.23,6.9-9.3,10.13-15.83,10.13-11.41,0-19.61-9.11-19.61-21.91s8.1-21.91,19.52-21.91c6.72,0,11.87,2.76,15.93,8.56v-7.82ZM257.38,191.4c-2.39,3.31-3.77,7.82-3.77,12.43,0,9.94,6.35,17.31,14.82,17.31s15.93-8.19,15.93-18.23-6.35-16.94-15.65-16.94c-5.06,0-8.56,1.66-11.32,5.43Z"/><path class="cls-2" d="M308.74,182.38v7.64c1.38-3.04,2.3-4.23,3.96-5.62,2.21-1.75,5.43-2.76,8.56-2.76h1.84v4.51h-1.57c-7.82,0-13.26,6.9-12.8,16.48v22.09h-4.6v-42.35h4.6Z"/><path class="cls-2" d="M336.26,182.38v6.17c3.5-4.88,7.09-6.9,12.15-6.9,3.13,0,5.98.92,8.01,2.58,1.47,1.2,2.3,2.48,3.41,5.43,3.22-5.71,7.18-8.01,13.72-8.01,5.06,0,8.93,1.66,11.05,4.69,1.75,2.67,2.12,4.69,2.12,11.6v26.79h-4.6v-25.41c0-7,0-7.27-1.29-9.39-1.38-2.48-4.51-3.96-8.47-3.96-7,0-10.86,4.69-10.86,13.35v25.41h-4.6v-25.41c0-5.8-.55-8.47-2.21-10.49-1.66-1.93-3.96-2.85-7.09-2.85-7,0-11.32,5.15-11.32,13.35v25.41h-4.6l.09-42.35h4.51Z"/><path class="cls-2" d="M433.47,182.38h4.6v42.35h-4.6v-9.39c-4.23,6.9-9.3,10.13-15.83,10.13-11.41,0-19.61-9.11-19.61-21.91s8.1-21.91,19.52-21.91c6.72,0,11.87,2.76,15.93,8.56v-7.82ZM406.59,191.4c-2.39,3.31-3.77,7.82-3.77,12.43,0,9.94,6.35,17.31,14.82,17.31s15.93-8.19,15.93-18.23-6.35-16.94-15.65-16.94c-5.06,0-8.56,1.66-11.32,5.43Z"/><path class="cls-1" d="M265.34,69.91v.03c-2.34-1.45-5.38-3.01-8.95-4.12-2.74-.85-5.97-1.78-9.53-1.78-5.32,0-11.39,1.71-17.67,5.86h-18.42v20.15c0,7.88-.23,11.77-.69,14.11-.79,3.75-2.67,6.76-5.64,9.04-2.97,2.27-7.32,3.41-12.47,3.41s-8.9-1.07-11.56-3.22c-2.66-2.15-4.26-4.78-4.8-7.91-.54-3.13-.81-7.1-.81-14.36v-20.91h-18.59v18.34c0,11.01.5,17.57,1.5,22.11,1,4.55,2.85,8.38,5.54,11.51,2.69,3.12,6.29,5.62,10.79,7.47,4.51,1.86,10.67,2.78,17.93,2.78,8.76,0,15.13-1.01,19.65-3.03,3.2-1.43,5.92-3.17,8.17-5.2,2.4,2.19,5.33,4.01,8.82,5.45,4.51,1.86,10.67,2.78,17.93,2.78,8.76,0,15.13-1.01,19.65-3.03,4.53-2.02,8.11-4.65,10.74-7.89,2.62-3.23,4.36-6.61,5.19-10.16,1.21-5.25,1.81-7.83,1.81-18.09v-23.36h-18.59ZM265.34,94.03c0,7.88-.23,7.81-.69,10.15-.79,3.75-2.67,6.76-5.64,9.04-2.97,2.27-7.32,3.41-12.47,3.41s-8.9-1.07-11.56-3.22c-2.66-2.15-4.26-4.78-4.8-7.91-.54-3.13-.81-3.14-.81-10.39v-16.11c18.24-16.05,33.9-1.88,35.97,0v15.05Z"/><path class="cls-3" d="M282.43,21.77c-1-4.55-2.85-8.38-5.54-11.51-2.69-3.12-6.29-5.62-10.79-7.47-4.51-1.86-10.67-2.78-17.93-2.78-8.76,0-15.13,1.01-19.65,3.03-3.2,1.43-5.91,3.17-8.17,5.2-2.4-2.19-5.33-4.01-8.82-5.45-4.51-1.86-10.67-2.78-17.93-2.78-8.76,0-15.13,1.01-19.65,3.03-4.53,2.02-8.11,4.65-10.74,7.89-2.62,3.23-4.36,6.61-5.19,10.16-1.21,5.25-1.81,13.01-1.81,23.27v20.32h18.59v-.03c2.34,1.45,5.38,3.01,8.95,4.12,2.74.85,5.97,1.78,9.53,1.78,5.32,0,11.39-1.71,17.67-5.86h18.42v-.3h0v-16.8c0-7.88.23-16.95.69-19.29.79-3.75,2.67-6.76,5.64-9.04,2.97-2.27,7.32-3.41,12.47-3.41s8.9,1.07,11.56,3.22c2.66,2.15,4.26,4.78,4.8,7.91.54,3.13.81,12.28.81,19.54v17.86h18.59v-15.3c0-11.01-.5-22.75-1.5-27.29ZM174.8,55.6v-12c0-7.88.23-12.99.69-15.33.79-3.75,2.67-6.76,5.64-9.04,2.97-2.27,7.32-3.41,12.47-3.41s8.9,1.07,11.56,3.22c2.66,2.15,4.26,4.78,4.8,7.91.54,3.13.81,8.32.81,15.57v13.06c-18.24,16.05-33.9,1.88-35.97,0Z"/></svg>