<?xml version="1.0" encoding="UTF-8"?><svg id="Layer_1" xmlns="http://www.w3.org/2000/svg" viewBox="0 0 441 271.25"><defs><style>.cls-1{fill:#32b4ca;}.cls-2{fill:#003e79;}.cls-3{fill:#1e60aa;}</style></defs><path class="cls-2" d="M14.91,224.72H0v-61.4h17.4l16.29,33.05,16.11-33.05h17.49v61.4h-14.91v-35.07l-18.69,37.56-18.78-37.56v35.07Z"/><path class="cls-2" d="M93.89,224.72h-14.91v-61.4h17.4l16.29,33.05,16.11-33.05h17.49v61.4h-14.91v-35.07l-18.69,37.56-18.78-37.56v35.07Z"/><path class="cls-2" d="M165.69,224.72h-5.25v-61.4h14.82c7.27,0,12.61,1.47,16.29,4.42,3.96,3.22,6.08,8.1,6.08,13.81,0,6.08-2.39,11.42-6.72,14.73-3.41,2.67-7.82,3.77-14.82,3.77h-10.4v24.67ZM175.08,195.36c3.59,0,6.17-.28,8.47-1.1,5.43-1.66,8.93-6.72,8.93-12.61s-3.59-10.95-9.39-12.61c-2.67-.74-5.34-1.01-9.76-1.01h-7.64v27.34h9.39Z"/><path class="cls-2" d="M211.35,188.91c3.96-4.97,8.1-7.27,13.35-7.27,3.68,0,7.64,1.47,9.76,3.77,2.12,2.21,3.04,5.43,3.04,10.59v28.72h-4.6v-29.09c0-6.26-3.04-9.67-8.74-9.67-3.77,0-7.27,1.66-9.76,4.6-2.3,2.76-3.04,5.15-3.04,9.57v24.58h-4.6v-61.4h4.6v25.59Z"/><path class="cls-2" d="M284.26,182.38h4.6v42.35h-4.6v-9.39c-4.23,6.9-9.3,10.13-15.83,10.13-11.41,0-19.61-9.11-19.61-21.91s8.1-21.91,19.52-21.91c6.72,0,11.87,2.76,15.93,8.56v-7.82ZM257.38,191.4c-2.39,3.31-3.77,7.82-3.77,12.43,0,9.94,6.35,17.31,14.82,17.31s15.93-8.19,15.93-18.23-6.35-16.94-15.65-16.94c-5.06,0-8.56,1.66-11.32,5.43Z"/><path class="cls-2" d="M308.74,182.38v7.64c1.38-3.04,2.3-4.23,3.96-5.62,2.21-1.75,5.43-2.76,8.56-2.76h1.84v4.51h-1.57c-7.82,0-13.26,6.9-12.8,16.48v22.09h-4.6v-42.35h4.6Z"/><path class="cls-2" d="M336.26,182.38v6.17c3.5-4.88,7.09-6.9,12.15-6.9,3.13,0,5.98.92,8.01,2.58,1.47,1.2,2.3,2.48,3.41,5.43,3.22-5.71,7.18-8.01,13.72-8.01,5.06,0,8.93,1.66,11.05,4.69,1.75,2.67,2.12,4.69,2.12,11.6v26.79h-4.6v-25.41c0-7,0-7.27-1.29-9.39-1.38-2.48-4.51-3.96-8.47-3.96-7,0-10.86,4.69-10.86,13.35v25.41h-4.6v-25.41c0-5.8-.55-8.47-2.21-10.49-1.66-1.93-3.96-2.85-7.09-2.85-7,0-11.32,5.15-11.32,13.35v25.41h-4.6l.09-42.35h4.51Z"/><path class="cls-2" d="M433.47,182.38h4.6v42.35h-4.6v-9.39c-4.23,6.9-9.3,10.13-15.83,10.13-11.41,0-19.61-9.11-19.61-21.91s8.1-21.91,19.52-21.91c6.72,0,11.87,2.76,15.93,8.56v-7.82ZM406.59,191.4c-2.39,3.31-3.77,7.82-3.77,12.43,0,9.94,6.35,17.31,14.82,17.31s15.93-8.19,15.93-18.23-6.35-16.94-15.65-16.94c-5.06,0-8.56,1.66-11.32,5.43Z"/><path class="cls-1" d="M265.34,69.91v.03c-2.34-1.45-5.38-3.01-8.95-4.12-2.74-.85-5.97-1.78-9.53-1.78-5.32,0-11.39,1.71-17.67,5.86h-18.42v20.15c0,7.88-.23,11.77-.69,14.11-.79,3.75-2.67,6.76-5.64,9.04-2.97,2.27-7.32,3.41-12.47,3.41s-8.9-1.07-11.56-3.22c-2.66-2.15-4.26-4.78-4.8-7.91-.54-3.13-.81-7.1-.81-14.36v-20.91h-18.59v18.34c0,11.01.5,17.57,1.5,22.11,1,4.55,2.85,8.38,5.54,11.51,2.69,3.12,6.29,5.62,10.79,7.47,4.51,1.86,10.67,2.78,17.93,2.78,8.76,0,15.13-1.01,19.65-3.03,3.2-1.43,5.92-3.17,8.17-5.2,2.4,2.19,5.33,4.01,8.82,5.45,4.51,1.86,10.67,2.78,17.93,2.78,8.76,0,15.13-1.01,19.65-3.03,4.53-2.02,8.11-4.65,10.74-7.89,2.62-3.23,4.36-6.61,5.19-10.16,1.21-5.25,1.81-7.83,1.81-18.09v-23.36h-18.59ZM265.34,94.03c0,7.88-.23,7.81-.69,10.15-.79,3.75-2.67,6.76-5.64,9.04-2.97,2.27-7.32,3.41-12.47,3.41s-8.9-1.07-11.56-3.22c-2.66-2.15-4.26-4.78-4.8-7.91-.54-3.13-.81-3.14-.81-10.39v-16.11c18.24-16.05,33.9-1.88,35.97,0v15.05Z"/><path class="cls-3" d="M282.43,21.77c-1-4.55-2.85-8.38-5.54-11.51-2.69-3.12-6.29-5.62-10.79-7.47-4.51-1.86-10.67-2.78-17.93-2.78-8.76,0-15.13,1.01-19.65,3.03-3.2,1.43-5.91,3.17-8.17,5.2-2.4-2.19-5.33-4.01-8.82-5.45-4.51-1.86-10.67-2.78-17.93-2.78-8.76,0-15.13,1.01-19.65,3.03-4.53,2.02-8.11,4.65-10.74,7.89-2.62,3.23-4.36,6.61-5.19,10.16-1.21,5.25-1.81,13.01-1.81,23.27v20.32h18.59v-.03c2.34,1.45,5.38,3.01,8.95,4.12,2.74.85,5.97,1.78,9.53,1.78,5.32,0,11.39-1.71,17.67-5.86h18.42v-.3h0v-16.8c0-7.88.23-16.95.69-19.29.79-3.75,2.67-6.76,5.64-9.04,2.97-2.27,7.32-3.41,12.47-3.41s8.9,1.07,11.56,3.22c2.66,2.15,4.26,4.78,4.8,7.91.54,3.13.81,12.28.81,19.54v17.86h18.59v-15.3c0-11.01-.5-22.75-1.5-27.29ZM174.8,55.6v-12c0-7.88.23-12.99.69-15.33.79-3.75,2.67-6.76,5.64-9.04,2.97-2.27,7.32-3.41,12.47-3.41s8.9,1.07,11.56,3.22c2.66,2.15,4.26,4.78,4.8,7.91.54,3.13.81,8.32.81,15.57v13.06c-18.24,16.05-33.9,1.88-35.97,0Z"/><path class="cls-3" d="M54.5,248.41c.22.14.34.33.38.55.04.22-.02.44-.16.66-.13.16-.29.25-.48.27-.2.02-.39-.02-.57-.11-.68-.45-1.41-.8-2.19-1.05s-1.62-.38-2.52-.38c-1.1,0-2.11.19-3.06.58-.94.39-1.76.94-2.46,1.67-.7.73-1.24,1.59-1.63,2.57-.39.99-.58,2.07-.58,3.26s.2,2.33.59,3.33c.39,1,.95,1.85,1.66,2.57.71.72,1.53,1.27,2.46,1.64.93.38,1.94.57,3.02.57.88,0,1.71-.13,2.49-.38.78-.25,1.51-.59,2.19-1.02.18-.11.37-.15.58-.12s.37.13.5.31c.16.2.22.41.18.63-.04.23-.17.4-.36.53-.45.29-.98.56-1.59.81-.61.25-1.26.45-1.94.61-.68.15-1.36.23-2.05.23-1.29,0-2.5-.23-3.64-.7-1.13-.47-2.14-1.13-3.02-1.98-.88-.85-1.57-1.87-2.06-3.06-.49-1.18-.74-2.5-.74-3.96s.24-2.69.73-3.86,1.16-2.19,2.02-3.06c.86-.86,1.87-1.54,3.02-2.02,1.15-.49,2.38-.73,3.69-.73,1.02,0,2.01.14,2.96.43.95.29,1.81.69,2.59,1.21Z"/><path class="cls-3" d="M68.21,252.18c.23,0,.43.08.58.24.15.16.23.35.23.57v7.59c0,1.78-.5,3.13-1.51,4.07s-2.36,1.4-4.07,1.4-3.03-.47-4.03-1.4c-1-.93-1.49-2.29-1.49-4.07v-7.59c0-.22.08-.4.23-.57s.35-.24.58-.24.43.08.58.24c.15.16.23.35.23.57v7.59c0,1.29.35,2.28,1.04,2.95.69.67,1.65,1.01,2.87,1.01s2.21-.34,2.91-1.01c.7-.67,1.05-1.66,1.05-2.95v-7.59c0-.22.07-.4.22-.57.14-.16.34-.24.59-.24Z"/><path class="cls-3" d="M74,250.06c-.38,0-.66-.08-.85-.26-.19-.17-.28-.42-.28-.74v-.27c0-.32.1-.57.31-.74.21-.17.49-.26.85-.26.34,0,.61.08.79.26.19.17.28.42.28.74v.27c0,.32-.09.57-.28.74-.19.17-.46.26-.82.26ZM74.81,265.06c0,.21-.08.4-.24.56s-.35.24-.57.24c-.23,0-.43-.08-.58-.24-.15-.16-.23-.35-.23-.56v-12.39c0-.22.08-.4.23-.57.15-.16.35-.24.58-.24s.43.08.58.24c.15.16.23.35.23.57v12.39Z"/><path class="cls-3" d="M90.18,245.94c.23,0,.43.08.58.23.15.15.23.35.23.58v18.31c0,.21-.08.4-.24.56-.16.16-.35.24-.57.24-.25,0-.45-.08-.59-.24-.14-.16-.22-.35-.22-.56v-3.21l.46-.38c0,.5-.13,1.03-.4,1.58-.27.55-.65,1.05-1.14,1.52-.49.47-1.07.84-1.72,1.13-.66.29-1.37.43-2.14.43-1.19,0-2.26-.31-3.22-.94-.96-.63-1.72-1.48-2.28-2.56-.56-1.08-.83-2.31-.83-3.69s.28-2.59.83-3.68c.56-1.09,1.31-1.94,2.26-2.56.95-.62,2.02-.93,3.2-.93.75,0,1.46.13,2.13.4.66.27,1.25.64,1.76,1.1.51.47.92,1,1.21,1.6.3.6.44,1.23.44,1.87l-.57-.4v-9.61c0-.22.07-.4.22-.56.14-.16.34-.24.59-.24ZM84.58,264.63c.95,0,1.8-.25,2.53-.74.74-.49,1.31-1.17,1.74-2.02.42-.85.63-1.83.63-2.92s-.21-2.04-.63-2.9c-.42-.85-1-1.53-1.74-2.02-.74-.49-1.58-.74-2.53-.74s-1.77.25-2.52.74-1.33,1.17-1.75,2.02c-.42.85-.63,1.82-.63,2.9s.21,2.05.63,2.91c.42.86,1.01,1.54,1.75,2.03.74.49,1.58.74,2.52.74Z"/><path class="cls-3" d="M106.4,252.1c.23,0,.43.08.58.24s.23.36.23.59v12.12c0,.21-.08.4-.24.56-.16.16-.35.24-.57.24-.25,0-.45-.08-.59-.24-.14-.16-.22-.35-.22-.56v-3.21l.46-.22c0,.5-.14,1.01-.42,1.54-.28.52-.66,1.01-1.14,1.45s-1.05.81-1.71,1.09c-.66.28-1.37.42-2.14.42-1.2,0-2.28-.31-3.25-.94-.96-.63-1.71-1.49-2.26-2.59-.55-1.09-.82-2.32-.82-3.69s.28-2.63.83-3.7c.56-1.07,1.31-1.91,2.26-2.52.95-.61,2.02-.92,3.2-.92.77,0,1.49.13,2.17.4s1.26.64,1.76,1.1c.5.47.9,1,1.18,1.6.29.6.43,1.23.43,1.87l-.57-.4v-3.42c0-.23.07-.43.22-.59.14-.16.34-.24.59-.24ZM100.79,264.63c.95,0,1.8-.25,2.53-.74.74-.49,1.31-1.18,1.74-2.05.42-.87.63-1.85.63-2.92s-.21-2.01-.63-2.85c-.42-.84-1-1.52-1.74-2.02-.74-.5-1.58-.75-2.53-.75s-1.77.24-2.52.73c-.74.48-1.33,1.15-1.75,1.99s-.63,1.81-.63,2.91.21,2.05.62,2.92c.41.87.99,1.55,1.74,2.05.74.49,1.59.74,2.54.74Z"/><path class="cls-3" d="M117.62,251.99c1.11,0,2.06.29,2.85.88.79.58,1.33,1.45,1.62,2.6l-.38.11.16-.49c.23-.54.62-1.05,1.17-1.52.55-.48,1.17-.86,1.87-1.14.7-.29,1.41-.43,2.13-.43,1.13,0,2.04.24,2.73.73.69.48,1.19,1.14,1.51,1.95.31.82.47,1.74.47,2.76v7.62c0,.21-.08.4-.23.56-.15.16-.35.24-.58.24s-.43-.08-.58-.24-.23-.35-.23-.56v-7.54c0-.74-.12-1.41-.35-2.02s-.6-1.1-1.1-1.45c-.5-.36-1.18-.54-2.02-.54-.74,0-1.44.18-2.11.54s-1.22.84-1.64,1.45c-.42.61-.63,1.28-.63,2.02v7.54c0,.21-.08.4-.23.56-.15.16-.35.24-.58.24s-.43-.08-.58-.24c-.15-.16-.23-.35-.23-.56v-7.62c0-.74-.11-1.4-.32-1.99-.22-.59-.57-1.06-1.05-1.41s-1.14-.53-1.97-.53c-.74,0-1.43.18-2.09.53s-1.18.82-1.59,1.41c-.4.59-.61,1.26-.61,1.99v7.62c0,.21-.08.4-.24.56s-.35.24-.57.24c-.25,0-.45-.08-.59-.24s-.22-.35-.22-.56v-12.06c0-.22.08-.4.23-.57s.35-.24.58-.24.43.08.58.24c.15.16.23.35.23.57v2.5l-.73,1c.05-.54.23-1.08.53-1.62.3-.54.69-1.02,1.17-1.45.48-.43,1.04-.78,1.66-1.04.62-.26,1.27-.39,1.95-.39Z"/><path class="cls-3" d="M148.7,258.97c0,1.36-.3,2.59-.9,3.68-.6,1.09-1.41,1.94-2.44,2.56-1.02.62-2.18.93-3.47.93s-2.43-.31-3.46-.93c-1.03-.62-1.85-1.47-2.45-2.56-.6-1.09-.9-2.31-.9-3.68s.3-2.61.9-3.69c.6-1.08,1.42-1.93,2.45-2.56,1.03-.63,2.19-.94,3.46-.94s2.45.31,3.47.94c1.02.63,1.84,1.48,2.44,2.56s.9,2.31.9,3.69ZM147.09,258.97c0-1.09-.22-2.07-.67-2.92-.45-.85-1.06-1.53-1.84-2.02s-1.67-.74-2.68-.74-1.87.25-2.65.74-1.4,1.17-1.86,2.02c-.46.85-.69,1.83-.69,2.92s.23,2.06.69,2.91c.46.84,1.08,1.51,1.86,2.01.78.49,1.67.74,2.65.74s1.9-.25,2.68-.74c.78-.49,1.4-1.16,1.84-2.01.45-.84.67-1.81.67-2.91Z"/><path class="cls-3" d="M151.23,263.68c-.14-.22-.21-.43-.2-.63,0-.21.12-.37.34-.5.14-.13.31-.18.5-.16.19.02.36.11.53.27.49.63,1.07,1.14,1.76,1.52.69.39,1.51.58,2.46.58.5,0,1-.08,1.49-.26.49-.17.9-.43,1.23-.78.32-.35.48-.8.48-1.33s-.16-1.01-.48-1.35c-.32-.34-.74-.61-1.25-.81-.51-.2-1.05-.37-1.63-.51-.61-.16-1.2-.35-1.78-.55-.58-.21-1.08-.47-1.52-.78-.44-.31-.79-.7-1.06-1.15-.27-.45-.4-1-.4-1.64,0-.75.21-1.42.62-1.99s.97-1.02,1.68-1.35c.71-.32,1.51-.48,2.41-.48.45,0,.93.06,1.45.17.52.12,1.03.31,1.54.58.5.27.95.64,1.35,1.1.16.16.24.35.24.55s-.09.39-.27.55c-.14.11-.31.16-.5.16s-.35-.07-.47-.22c-.43-.48-.94-.85-1.53-1.1-.59-.25-1.23-.38-1.91-.38-.52,0-1.01.09-1.47.26-.46.17-.84.43-1.14.77s-.46.79-.46,1.35c.04.52.22.94.55,1.27.33.32.77.59,1.32.81s1.16.41,1.84.59c.57.14,1.13.31,1.66.51.53.2,1,.44,1.4.74.4.3.73.67.97,1.12.24.45.36,1.01.36,1.7,0,.79-.22,1.47-.66,2.05-.44.57-1.03,1.01-1.76,1.32-.74.31-1.55.46-2.45.46-.97,0-1.91-.19-2.81-.57-.91-.38-1.71-1-2.41-1.88Z"/><path class="cls-3" d="M173.77,265.06c0,.21-.08.4-.24.56-.16.16-.35.24-.57.24-.23,0-.43-.08-.58-.24s-.23-.35-.23-.56v-18.31c0-.22.08-.4.24-.56s.35-.24.57-.24c.23,0,.43.08.58.24.15.16.23.35.23.56v18.31Z"/><path class="cls-3" d="M189.37,252.1c.23,0,.43.08.58.24s.23.36.23.59v12.12c0,.21-.08.4-.24.56-.16.16-.35.24-.57.24-.25,0-.45-.08-.59-.24-.14-.16-.22-.35-.22-.56v-3.21l.46-.22c0,.5-.14,1.01-.42,1.54-.28.52-.66,1.01-1.14,1.45s-1.05.81-1.71,1.09c-.66.28-1.37.42-2.14.42-1.2,0-2.28-.31-3.25-.94-.96-.63-1.71-1.49-2.26-2.59-.55-1.09-.82-2.32-.82-3.69s.28-2.63.83-3.7c.56-1.07,1.31-1.91,2.26-2.52.95-.61,2.02-.92,3.2-.92.77,0,1.49.13,2.17.4s1.26.64,1.76,1.1c.5.47.9,1,1.18,1.6.29.6.43,1.23.43,1.87l-.57-.4v-3.42c0-.23.07-.43.22-.59.14-.16.34-.24.59-.24ZM183.76,264.63c.95,0,1.8-.25,2.53-.74.74-.49,1.31-1.18,1.74-2.05.42-.87.63-1.85.63-2.92s-.21-2.01-.63-2.85c-.42-.84-1-1.52-1.74-2.02-.74-.5-1.58-.75-2.53-.75s-1.77.24-2.52.73c-.74.48-1.33,1.15-1.75,1.99s-.63,1.81-.63,2.91.21,2.05.62,2.92c.41.87.99,1.55,1.74,2.05.74.49,1.59.74,2.54.74Z"/><path class="cls-3" d="M200.97,263.68c-.14-.22-.21-.43-.2-.63,0-.21.12-.37.34-.5.14-.13.31-.18.5-.16.19.02.36.11.53.27.49.63,1.07,1.14,1.76,1.52.69.39,1.51.58,2.46.58.5,0,1-.08,1.49-.26.49-.17.9-.43,1.23-.78.32-.35.48-.8.48-1.33s-.16-1.01-.48-1.35c-.32-.34-.74-.61-1.25-.81-.51-.2-1.05-.37-1.63-.51-.61-.16-1.2-.35-1.78-.55-.58-.21-1.08-.47-1.52-.78-.44-.31-.79-.7-1.06-1.15-.27-.45-.4-1-.4-1.64,0-.75.21-1.42.62-1.99s.97-1.02,1.68-1.35c.71-.32,1.51-.48,2.41-.48.45,0,.93.06,1.45.17.52.12,1.03.31,1.54.58.5.27.95.64,1.35,1.1.16.16.24.35.24.55s-.09.39-.27.55c-.14.11-.31.16-.5.16s-.35-.07-.47-.22c-.43-.48-.94-.85-1.53-1.1-.59-.25-1.23-.38-1.91-.38-.52,0-1.01.09-1.47.26-.46.17-.84.43-1.14.77s-.46.79-.46,1.35c.04.52.22.94.55,1.27.33.32.77.59,1.32.81s1.16.41,1.84.59c.57.14,1.13.31,1.66.51.53.2,1,.44,1.4.74.4.3.73.67.97,1.12.24.45.36,1.01.36,1.7,0,.79-.22,1.47-.66,2.05-.44.57-1.03,1.01-1.76,1.32-.74.31-1.55.46-2.45.46-.97,0-1.91-.19-2.81-.57-.91-.38-1.71-1-2.41-1.88Z"/><path class="cls-3" d="M225.77,252.1c.23,0,.43.08.58.24.15.16.23.36.23.59v12.12c0,.21-.08.4-.24.56s-.35.24-.57.24c-.25,0-.45-.08-.59-.24-.14-.16-.22-.35-.22-.56v-3.21l.46-.22c0,.5-.14,1.01-.42,1.54-.28.52-.66,1.01-1.14,1.45-.49.45-1.05.81-1.71,1.09s-1.37.42-2.14.42c-1.2,0-2.28-.31-3.25-.94s-1.71-1.49-2.26-2.59c-.55-1.09-.82-2.32-.82-3.69s.28-2.63.84-3.7c.56-1.07,1.31-1.91,2.26-2.52s2.02-.92,3.21-.92c.77,0,1.49.13,2.17.4.67.27,1.26.64,1.76,1.1.5.47.9,1,1.18,1.6.29.6.43,1.23.43,1.87l-.56-.4v-3.42c0-.23.07-.43.22-.59.14-.16.34-.24.59-.24ZM220.17,264.63c.95,0,1.8-.25,2.53-.74.74-.49,1.31-1.18,1.74-2.05s.63-1.85.63-2.92-.21-2.01-.63-2.85c-.42-.84-1-1.52-1.74-2.02-.74-.5-1.58-.75-2.53-.75s-1.77.24-2.52.73c-.74.48-1.33,1.15-1.75,1.99-.42.84-.63,1.81-.63,2.91s.21,2.05.62,2.92c.41.87.99,1.55,1.74,2.05.74.49,1.59.74,2.54.74Z"/><path class="cls-3" d="M232.59,265.06c0,.21-.08.4-.24.56s-.35.24-.57.24c-.23,0-.43-.08-.58-.24-.15-.16-.23-.35-.23-.56v-18.31c0-.22.08-.4.24-.56s.35-.24.56-.24c.23,0,.43.08.58.24.15.16.23.35.23.56v18.31Z"/><path class="cls-3" d="M247.16,252.18c.23,0,.43.08.58.24.15.16.23.35.23.57v7.59c0,1.78-.5,3.13-1.51,4.07-1,.93-2.36,1.4-4.07,1.4s-3.03-.47-4.03-1.4c-1-.93-1.49-2.29-1.49-4.07v-7.59c0-.22.08-.4.23-.57.15-.16.35-.24.58-.24s.43.08.58.24c.15.16.23.35.23.57v7.59c0,1.29.35,2.28,1.04,2.95.69.67,1.65,1.01,2.87,1.01s2.21-.34,2.91-1.01c.7-.67,1.05-1.66,1.05-2.95v-7.59c0-.22.07-.4.21-.57s.34-.24.59-.24Z"/><path class="cls-3" d="M263.37,245.94c.23,0,.43.08.58.23.15.15.23.35.23.58v18.31c0,.21-.08.4-.24.56-.16.16-.35.24-.56.24-.25,0-.45-.08-.59-.24s-.22-.35-.22-.56v-3.21l.46-.38c0,.5-.13,1.03-.4,1.58-.27.55-.65,1.05-1.14,1.52s-1.07.84-1.72,1.13c-.66.29-1.37.43-2.14.43-1.18,0-2.26-.31-3.22-.94-.96-.63-1.72-1.48-2.28-2.56-.56-1.08-.83-2.31-.83-3.69s.28-2.59.83-3.68c.56-1.09,1.31-1.94,2.26-2.56.95-.62,2.02-.93,3.2-.93.75,0,1.46.13,2.13.4.66.27,1.25.64,1.76,1.1.51.47.92,1,1.21,1.6.3.6.44,1.23.44,1.87l-.57-.4v-9.61c0-.22.07-.4.22-.56s.34-.24.59-.24ZM257.77,264.63c.95,0,1.8-.25,2.53-.74.74-.49,1.31-1.17,1.74-2.02.42-.85.63-1.83.63-2.92s-.21-2.04-.63-2.9c-.42-.85-1-1.53-1.74-2.02s-1.58-.74-2.53-.74-1.77.25-2.52.74-1.33,1.17-1.75,2.02c-.42.85-.63,1.82-.63,2.9s.21,2.05.63,2.91,1.01,1.54,1.75,2.03c.74.49,1.58.74,2.52.74Z"/><path class="cls-3" d="M286.93,245.94c.23,0,.43.08.58.23.15.15.23.35.23.58v18.31c0,.21-.08.4-.24.56-.16.16-.35.24-.56.24-.25,0-.45-.08-.59-.24s-.22-.35-.22-.56v-3.21l.46-.38c0,.5-.13,1.03-.4,1.58-.27.55-.65,1.05-1.14,1.52s-1.07.84-1.72,1.13c-.66.29-1.37.43-2.14.43-1.18,0-2.26-.31-3.22-.94-.96-.63-1.72-1.48-2.28-2.56-.56-1.08-.83-2.31-.83-3.69s.28-2.59.83-3.68c.56-1.09,1.31-1.94,2.26-2.56.95-.62,2.02-.93,3.2-.93.75,0,1.46.13,2.13.4.66.27,1.25.64,1.76,1.1.51.47.92,1,1.21,1.6.3.6.44,1.23.44,1.87l-.57-.4v-9.61c0-.22.07-.4.22-.56s.34-.24.59-.24ZM281.33,264.63c.95,0,1.8-.25,2.53-.74.74-.49,1.31-1.17,1.74-2.02.42-.85.63-1.83.63-2.92s-.21-2.04-.63-2.9c-.42-.85-1-1.53-1.74-2.02s-1.58-.74-2.53-.74-1.77.25-2.52.74-1.33,1.17-1.75,2.02c-.42.85-.63,1.82-.63,2.9s.21,2.05.63,2.91,1.01,1.54,1.75,2.03c.74.49,1.58.74,2.52.74Z"/><path class="cls-3" d="M298.08,266.13c-1.38,0-2.6-.3-3.66-.89-1.06-.59-1.89-1.42-2.48-2.48-.59-1.06-.89-2.3-.89-3.72,0-1.53.3-2.83.9-3.9.6-1.08,1.38-1.91,2.34-2.49s1.98-.87,3.06-.87c.79,0,1.56.14,2.3.42.74.28,1.4.69,1.98,1.24.57.55,1.04,1.22,1.4,2.01s.55,1.71.57,2.75c0,.22-.08.4-.24.55-.16.15-.35.23-.56.23h-10.8l-.32-1.45h10.61l-.35.32v-.54c-.09-.84-.37-1.56-.83-2.15s-1.03-1.04-1.68-1.35-1.34-.46-2.06-.46c-.54,0-1.09.11-1.66.32-.57.22-1.08.55-1.54,1.01-.46.46-.83,1.04-1.12,1.75-.29.71-.43,1.55-.43,2.52,0,1.06.22,2.02.65,2.88.43.86,1.05,1.54,1.86,2.05.81.5,1.79.75,2.94.75.61,0,1.17-.09,1.67-.27.5-.18.95-.42,1.33-.71.39-.3.7-.61.96-.93.2-.16.39-.24.57-.24.2,0,.36.07.5.21.13.14.2.31.2.49,0,.22-.09.4-.27.57-.54.65-1.24,1.21-2.1,1.68s-1.8.71-2.83.71Z"/><path class="cls-3" d="M313.4,252.16h6.28c.21,0,.39.08.54.23.14.15.22.34.22.55,0,.2-.07.37-.22.51-.14.14-.32.22-.54.22h-6.28c-.22,0-.4-.08-.55-.23-.15-.15-.23-.33-.23-.52,0-.22.08-.39.23-.54.15-.14.34-.22.55-.22ZM316.18,248.36c.23,0,.43.08.58.24.15.16.23.35.23.56v13.52c0,.5.07.88.2,1.13.13.25.31.42.53.5s.43.12.65.12c.14,0,.27-.02.39-.07.12-.04.25-.07.39-.07.16,0,.3.06.42.19.12.13.18.29.18.49,0,.25-.14.46-.43.63-.29.17-.63.26-1.02.26-.16,0-.4-.01-.73-.04s-.66-.13-1-.3c-.34-.17-.62-.47-.85-.9-.23-.43-.34-1.05-.34-1.86v-13.6c0-.21.08-.4.23-.56.15-.16.35-.24.58-.24Z"/><path class="cls-3" d="M333.71,252.18c.23,0,.43.08.58.24.15.16.23.35.23.57v7.59c0,1.78-.5,3.13-1.51,4.07-1,.93-2.36,1.4-4.07,1.4s-3.03-.47-4.03-1.4c-1-.93-1.49-2.29-1.49-4.07v-7.59c0-.22.08-.4.23-.57.15-.16.35-.24.58-.24s.43.08.58.24c.15.16.23.35.23.57v7.59c0,1.29.35,2.28,1.04,2.95.69.67,1.65,1.01,2.87,1.01s2.21-.34,2.91-1.01c.7-.67,1.05-1.66,1.05-2.95v-7.59c0-.22.07-.4.21-.57s.34-.24.59-.24Z"/><path class="cls-3" d="M352.58,251.78c1.18,0,2.13.24,2.84.71s1.22,1.12,1.54,1.94c.31.82.47,1.72.47,2.71v7.92c0,.21-.08.4-.24.56s-.35.24-.57.24c-.25,0-.45-.08-.59-.24-.14-.16-.22-.35-.22-.56v-7.84c0-.72-.12-1.37-.35-1.97-.23-.59-.62-1.07-1.14-1.43s-1.23-.54-2.09-.54c-.77,0-1.5.18-2.2.54s-1.25.83-1.68,1.43c-.43.59-.65,1.25-.65,1.97v7.84c0,.21-.08.4-.24.56s-.35.24-.56.24c-.25,0-.45-.08-.59-.24-.14-.16-.22-.35-.22-.56v-12.06c0-.22.08-.4.23-.57.15-.16.35-.24.58-.24s.43.08.58.24c.15.16.23.35.23.57v2.26l-.62.97c.04-.57.22-1.13.55-1.66.33-.53.76-1,1.28-1.43.52-.42,1.1-.75,1.74-1,.64-.24,1.28-.36,1.92-.36Z"/><path class="cls-3" d="M367.77,266.13c-1.38,0-2.6-.3-3.66-.89-1.06-.59-1.88-1.42-2.48-2.48-.59-1.06-.89-2.3-.89-3.72,0-1.53.3-2.83.9-3.9s1.38-1.91,2.34-2.49,1.98-.87,3.06-.87c.79,0,1.56.14,2.3.42.74.28,1.41.69,1.98,1.24.57.55,1.04,1.22,1.4,2.01s.55,1.71.56,2.75c0,.22-.08.4-.24.55-.16.15-.35.23-.57.23h-10.8l-.32-1.45h10.61l-.35.32v-.54c-.09-.84-.37-1.56-.84-2.15s-1.03-1.04-1.68-1.35c-.66-.31-1.34-.46-2.06-.46-.54,0-1.09.11-1.66.32-.56.22-1.08.55-1.53,1.01s-.83,1.04-1.12,1.75c-.29.71-.43,1.55-.43,2.52,0,1.06.22,2.02.65,2.88.43.86,1.05,1.54,1.86,2.05.81.5,1.79.75,2.94.75.61,0,1.17-.09,1.67-.27.5-.18.95-.42,1.33-.71.39-.3.7-.61.96-.93.2-.16.39-.24.56-.24.2,0,.36.07.5.21.13.14.2.31.2.49,0,.22-.09.4-.27.57-.54.65-1.24,1.21-2.1,1.68-.86.48-1.8.71-2.83.71Z"/><path class="cls-3" d="M382.13,251.78c.79,0,1.53.14,2.21.42.68.28,1.28.64,1.79,1.08.51.44.91.91,1.2,1.4.29.49.43.97.43,1.41l-.43-.65v-2.5c0-.23.08-.43.23-.59.15-.16.35-.24.58-.24s.43.08.58.24c.15.16.23.36.23.59v11.66c0,1.44-.3,2.65-.89,3.64-.59.99-1.4,1.74-2.41,2.25-1.01.51-2.17.77-3.46.77-.63,0-1.29-.08-1.98-.24s-1.28-.37-1.78-.62c-.49-.25-.78-.51-.85-.78-.13-.16-.18-.32-.18-.47,0-.15.09-.28.23-.39.16-.13.35-.14.55-.04.21.1.51.23.9.39.16.05.4.13.71.24.31.11.68.2,1.1.28.42.08.86.12,1.31.12,1.62,0,2.87-.46,3.77-1.39s1.35-2.14,1.35-3.65v-2.59l.3.08c-.16.65-.43,1.21-.81,1.7-.38.49-.82.89-1.32,1.23s-1.04.58-1.62.75c-.58.17-1.15.26-1.72.26-1.24,0-2.36-.31-3.35-.94-1-.63-1.78-1.48-2.36-2.56-.57-1.08-.86-2.31-.86-3.69s.29-2.59.86-3.68c.57-1.09,1.36-1.94,2.34-2.56.99-.62,2.1-.93,3.34-.93ZM382.29,253.29c-.97,0-1.85.25-2.63.74-.78.49-1.39,1.17-1.83,2.02-.44.85-.66,1.82-.66,2.9s.22,2.05.66,2.91,1.05,1.54,1.83,2.03c.78.49,1.66.74,2.63.74s1.87-.24,2.64-.73c.77-.48,1.38-1.15,1.83-2.01.45-.85.67-1.84.67-2.95s-.22-2.1-.67-2.95c-.45-.85-1.06-1.52-1.83-1.99s-1.65-.71-2.64-.71Z"/><path class="cls-3" d="M405.37,258.97c0,1.36-.3,2.59-.9,3.68-.6,1.09-1.41,1.94-2.44,2.56-1.02.62-2.18.93-3.47.93s-2.43-.31-3.46-.93c-1.03-.62-1.85-1.47-2.45-2.56-.6-1.09-.9-2.31-.9-3.68s.3-2.61.9-3.69c.6-1.08,1.42-1.93,2.45-2.56,1.03-.63,2.19-.94,3.46-.94s2.45.31,3.47.94c1.02.63,1.84,1.48,2.44,2.56s.9,2.31.9,3.69ZM403.75,258.97c0-1.09-.22-2.07-.67-2.92-.45-.85-1.06-1.53-1.85-2.02-.78-.49-1.67-.74-2.68-.74s-1.87.25-2.65.74c-.78.49-1.4,1.17-1.86,2.02-.46.85-.69,1.83-.69,2.92s.23,2.06.69,2.91c.46.84,1.08,1.51,1.86,2.01.78.49,1.67.74,2.65.74s1.9-.25,2.68-.74c.78-.49,1.4-1.16,1.85-2.01.45-.84.67-1.81.67-2.91Z"/><path class="cls-3" d="M414.63,251.78c.86,0,1.65.09,2.37.28s1.3.44,1.74.77c.44.32.66.67.66,1.05,0,.18-.07.36-.2.53s-.3.26-.5.26c-.23,0-.42-.05-.55-.16-.13-.11-.26-.23-.39-.38-.13-.14-.31-.28-.56-.4-.23-.11-.57-.21-1.01-.3-.44-.09-.93-.13-1.47-.13-1.01,0-1.91.25-2.72.75-.81.5-1.45,1.18-1.91,2.03-.47.85-.7,1.81-.7,2.87s.22,2.05.66,2.91,1.06,1.54,1.86,2.03c.8.49,1.72.74,2.76.74.72,0,1.28-.06,1.68-.19.4-.13.74-.27,1.01-.43.36-.2.61-.39.77-.58.15-.19.35-.28.61-.28.21,0,.39.07.51.2.13.13.19.31.19.52,0,.29-.21.61-.63.96-.42.35-1,.66-1.74.92s-1.59.39-2.56.39c-1.33,0-2.5-.31-3.51-.94s-1.8-1.49-2.37-2.57c-.56-1.09-.85-2.31-.85-3.68s.29-2.5.86-3.58,1.37-1.94,2.4-2.6c1.02-.66,2.23-.98,3.61-.98Z"/><path class="cls-3" d="M423.28,250.06c-.38,0-.66-.08-.85-.26-.19-.17-.28-.42-.28-.74v-.27c0-.32.1-.57.31-.74.21-.17.49-.26.85-.26s.61.08.79.26c.19.17.28.42.28.74v.27c0,.32-.09.57-.28.74-.19.17-.46.26-.82.26ZM424.08,265.06c0,.21-.08.4-.24.56s-.35.24-.57.24c-.23,0-.43-.08-.58-.24-.15-.16-.23-.35-.23-.56v-12.39c0-.22.08-.4.23-.57.15-.16.34-.24.58-.24s.43.08.58.24c.15.16.23.35.23.57v12.39Z"/><path class="cls-3" d="M441,258.97c0,1.36-.3,2.59-.9,3.68-.6,1.09-1.41,1.94-2.44,2.56-1.02.62-2.18.93-3.47.93s-2.43-.31-3.46-.93c-1.03-.62-1.85-1.47-2.45-2.56-.6-1.09-.9-2.31-.9-3.68s.3-2.61.9-3.69c.6-1.08,1.42-1.93,2.45-2.56,1.03-.63,2.19-.94,3.46-.94s2.45.31,3.47.94c1.02.63,1.84,1.48,2.44,2.56s.9,2.31.9,3.69ZM439.38,258.97c0-1.09-.22-2.07-.67-2.92-.45-.85-1.06-1.53-1.85-2.02-.78-.49-1.67-.74-2.68-.74s-1.87.25-2.65.74c-.78.49-1.4,1.17-1.86,2.02-.46.85-.69,1.83-.69,2.92s.23,2.06.69,2.91c.46.84,1.08,1.51,1.86,2.01.78.49,1.67.74,2.65.74s1.9-.25,2.68-.74c.78-.49,1.4-1.16,1.85-2.01.45-.84.67-1.81.67-2.91Z"/><path class="cls-1" d="M35.98,245.39l-21.34,21.72L0,253.44H0c2.58-1.35,9.56-2.1,13.41,1.97.24.25.84.99,1.17.94,1.26-1.21,2.53-2.43,3.74-3.68,3.5-3.6,12.03-7.28,17.66-7.28h0Z"/></svg>