<?xml version="1.0" encoding="UTF-8"?><svg id="Layer_1" xmlns="http://www.w3.org/2000/svg" viewBox="0 0 87.23 90.46"><defs><style>.cls-1{fill:#32b4ca;}.cls-2{fill:#1e60aa;}</style></defs><path class="cls-1" d="M74.53,47.75v.02c-1.6-.99-3.67-2.06-6.11-2.81-1.87-.58-4.07-1.21-6.51-1.21-3.64,0-7.78,1.17-12.07,4h-12.58v13.76c0,5.38-.16,8.04-.47,9.64-.54,2.56-1.82,4.62-3.85,6.17-2.03,1.55-5,2.33-8.52,2.33s-6.08-.73-7.9-2.2c-1.81-1.47-2.91-3.27-3.28-5.4-.37-2.14-.55-4.85-.55-9.8v-14.28H0v12.53c0,7.52.34,12,1.03,15.1.68,3.11,1.94,5.73,3.78,7.86,1.84,2.13,4.3,3.84,7.37,5.1,3.08,1.27,7.29,1.9,12.25,1.9,5.99,0,10.33-.69,13.42-2.07,2.19-.98,4.04-2.16,5.58-3.55,1.64,1.5,3.64,2.74,6.02,3.72,3.08,1.27,7.29,1.9,12.25,1.9,5.99,0,10.33-.69,13.42-2.07,3.09-1.38,5.54-3.18,7.33-5.39,1.79-2.21,2.98-4.52,3.55-6.94.83-3.59,1.24-5.35,1.24-12.35v-15.96h-12.7ZM74.53,64.22c0,5.38-.16,5.33-.47,6.93-.54,2.56-1.82,4.62-3.85,6.17-2.03,1.55-5,2.33-8.52,2.33s-6.08-.73-7.9-2.2c-1.81-1.47-2.91-3.27-3.28-5.4-.37-2.14-.55-2.14-.55-7.1v-11c12.46-10.96,23.15-1.28,24.57,0v10.28Z"/><path class="cls-2" d="M86.21,14.87c-.68-3.11-1.94-5.73-3.78-7.86-1.84-2.13-4.3-3.84-7.37-5.1-3.08-1.27-7.29-1.9-12.25-1.9-5.99,0-10.33.69-13.42,2.07-2.19.98-4.04,2.16-5.58,3.55-1.64-1.5-3.64-2.74-6.02-3.72-3.08-1.27-7.29-1.9-12.25-1.9-5.99,0-10.33.69-13.42,2.07-3.09,1.38-5.54,3.18-7.33,5.39-1.79,2.21-2.98,4.52-3.55,6.94-.83,3.59-1.24,8.89-1.24,15.89v13.88h12.7v-.02c1.6.99,3.67,2.06,6.11,2.81,1.87.58,4.07,1.21,6.51,1.21,3.64,0,7.78-1.17,12.07-4h12.58v-.21h0v-11.47c0-5.38.16-11.58.47-13.17.54-2.56,1.82-4.62,3.85-6.17,2.03-1.55,5-2.33,8.52-2.33s6.08.73,7.9,2.2c1.81,1.47,2.91,3.27,3.28,5.4.37,2.14.55,8.39.55,13.34v12.2h12.7v-10.45c0-7.52-.34-15.54-1.03-18.64ZM12.7,37.97v-8.2c0-5.38.16-8.87.47-10.47.54-2.56,1.82-4.62,3.85-6.17,2.03-1.55,5-2.33,8.52-2.33s6.08.73,7.9,2.2c1.81,1.47,2.91,3.27,3.28,5.4.37,2.14.55,5.68.55,10.64v8.92c-12.46,10.96-23.15,1.28-24.57,0Z"/></svg>